<?xml version="1.0" encoding="utf-8"?>
<!-- Generator: Adobe Illustrator 18.1.1, SVG Export Plug-In . SVG Version: 6.00 Build 0)  -->
<svg version="1.1" id="Layer_1" xmlns="http://www.w3.org/2000/svg" xmlns:xlink="http://www.w3.org/1999/xlink" x="0px" y="0px"
	 width="430px" height="80px" viewBox="0 0 430 80" enable-background="new 0 0 430 80" xml:space="preserve">
<g>
	<path fill="#005E62" d="M55.3,73.3C50.1,54.1,46.1,35.5,43.9,18l-23.1-2.4c-4,17.2-8.3,36.2-15,56.4l17.1,1.8
		c2.8-13.1,5.4-25.7,6.9-36.6l5.4-0.6l2.4,38.1L55.3,73.3z"/>
	<polygon fill="#005E62" points="24.1,51.2 41.4,49 40.3,60.6 20.5,61.7 	"/>
	<path fill="#005E62" d="M58.6,72.5l-1.6-59.2c0,0,15.2-3.8,25.2-2.8s15.7,10.2,15.2,20.9S86.3,45.9,86.3,45.9s5.9,0.5,9.2,4.6
		c3.1,3.8,1,13.2-2.5,17C88.6,72.3,81,74.9,58.6,72.5z M70.6,22.8l0.7,17.3c0,0,10.6,0.5,11.1-9.2C82.8,21.2,73.4,22,70.6,22.8z
		 M71.1,51.5l0.2,11.4c0,0,9.3,1.4,10.9-4.9C84,50.5,71.1,51.5,71.1,51.5z"/>
	<path fill="#005E62" d="M121.6,17.2c11.2-1.5,22.4,3.3,23.8,13s-0.3,22.6-2.1,29.9c-1.8,7.3-5.4,12.2-16.5,13.7
		c-11.1,1.5-18-1.2-20.3-8.6c-2.3-7.4-4.1-15.2-4.1-30.7C102.3,22.5,110.4,18.7,121.6,17.2z M117.5,50.7c0.7,7.9,1.7,14,7.9,13.7
		c5.9-0.3,6.8-10.1,6.8-16.2c0-6.6,0.7-13.7-8.2-13.5C115.8,34.8,116.8,42.8,117.5,50.7z"/>
	<path fill="#005E62" d="M150.3,15.1c0,0-2,21.6-1.3,38.9c0.6,15.7,14.4,17.8,22.1,18.3c7.8,0.5,18.5-3.3,18.8-17s-2-41.1-2-41.1
		l-14.2,2.1c0,0,1.3,22.6,0.7,37.6c-0.3,6.1-9.6,9.2-9.9-0.2c-0.3-11.7,2.5-38.6,2.5-38.6L150.3,15.1z"/>
	<path fill="#005E62" d="M192.5,19.9l0.7,18.1l11.2,0.5c-0.1,10.9,0.4,23.6,1.2,37.1l17.2-0.5c-1-7.9-1.6-24.7-1.5-31.5
		c0.1-3.5-5.3-5.9-5.3-5.9l18.3-0.2l-1.8-19L192.5,19.9z"/>
	<g>
		<g>
			<path fill="#005E62" d="M294.6,17.3L294,32.1l-25.3-0.9c0,0,2.3,1.5,2.3,3.8c0,1.7,0,1.7,0,1.7c1.1,0,3.6-0.1,4.6-0.1
				c5.3,0,9.3,0.5,12.2,1.5c6.5,2.4,9.7,8.4,9.7,18c0,0.4,0,1.1-0.6,3.7c-0.7,3.1-2.6,7.8-7.1,11c-3.7,2.8-8.8,4.1-15.3,4.1
				c-19.3,0-21.7-12.7-22.1-16.4l-0.1-1l9.6-5.5c0.1,0.6,0.2,1.1,1.2,3.4c1.4,2.8,4.5,6.2,11,6.2c4.8-0.4,7.1-2.4,7.1-6
				c0-5.5-2.7-8.3-8.1-8.3c-2.7,0-6.1,0.7-10.4,2.2l-8.4-3.7c1.7-17.8,2.4-24.8,2.4-25.9C256.8,20.1,294.6,17.3,294.6,17.3z"/>
		</g>
	</g>
	<g>
		<g>
			<path fill="#005E62" d="M313.6,34.9c-1,2.9-1.2,5.1-1.2,7.9l-13.2-3.5c1.2-11.2,6.6-22.1,21.6-22c6.3,0,11.4,1.5,15.2,4.5
				c3.7,3,5.6,6.9,5.6,11.8c0,13-16.9,24.1-21.7,27l-1.3,0.7l23-3.2v14.8H305c-0.7-7.2-1-11.7-1-13.6v-0.4l0.1-0.2
				c3.2-1.7,6.9-5.3,12.9-10.7c6.1-5.5,9.2-9.7,9.1-12.7c-0.1-5.4-9.6-8.7-14.3-3.5C313,31.8,314.1,33.3,313.6,34.9z"/>
		</g>
	</g>
	<g>
		<g>
			<path fill="#005E62" d="M359,31.6l-10.3,0.1V18.7l25.1-0.5v55.3h-18.6c0,0,1.4-36.7,1.5-38.3C356.7,33,359,31.6,359,31.6z"/>
		</g>
	</g>
	<g>
		<g>
			<path fill="#005E62" d="M388.4,65.7c-4.4-5.2-6.5-11.8-6.5-20c0-9.8,3.3-17.4,7.1-21.1c1.9-1.9,4.2-3.4,6.5-4.5
				c4.9-2.4,7.5-2.5,9.7-2.5c7,0,12.7,2.7,17.1,8.2c4.4,5.4,6.6,12.2,6.6,20.4c0,9.8-3.4,17.3-7.2,20.8c-1.8,1.8-4,3.2-6.5,4.2
				c-4.9,2.1-7.3,2.2-9.7,2.2C398.6,73.3,392.8,70.8,388.4,65.7z M413.3,46.4c0-7.5-3.1-12.6-7.7-13.3c-4.2-0.6-8.4,1.7-10,4.3
				c2.3,0.4,2.6,3.6,2.6,8.9c0,7.5,3.1,12.9,7.7,12.9C406.9,59.2,413.3,58.1,413.3,46.4z"/>
		</g>
	</g>
</g>
<g>
	<path fill="#FFFFFF" d="M49.9,67.1c-5.2-19.2-9.2-37.7-11.4-55.2L15.3,9.5c-4,17.2-8.3,36.2-15,56.4l17.1,1.8
		c2.8-13.1,5.4-25.7,6.9-36.6l5.4-0.6l2.4,38.1L49.9,67.1z"/>
	<polygon fill="#FFFFFF" points="18.7,45.1 36,42.9 34.9,54.5 15.1,55.6 	"/>
	<path fill="#FFFFFF" d="M53.2,66.4L51.5,7.1c0,0,15.2-3.8,25.2-2.8s15.7,10.2,15.2,20.9C91.4,36,80.9,39.8,80.9,39.8
		s5.9,0.5,9.2,4.6c3.1,3.8,1,13.2-2.5,17C83.2,66.2,75.6,68.8,53.2,66.4z M65.2,16.7L65.9,34c0,0,10.6,0.5,11.1-9.2
		C77.4,15.1,68,15.9,65.2,16.7z M65.7,45.4l0.2,11.4c0,0,9.3,1.4,10.9-4.9C78.6,44.4,65.7,45.4,65.7,45.4z"/>
	<path fill="#FFFFFF" d="M116.2,11.1c11.2-1.5,22.4,3.3,23.8,13s-0.3,22.6-2.1,29.9c-1.8,7.3-5.4,12.2-16.5,13.7
		c-11.1,1.5-18-1.2-20.3-8.6s-4.1-15.2-4.1-30.7C96.9,16.4,105,12.6,116.2,11.1z M112,44.6c0.7,7.9,1.7,14,7.9,13.7
		c5.9-0.3,6.8-10.1,6.8-16.2c0-6.6,0.7-13.7-8.2-13.5C110.4,28.7,111.4,36.7,112,44.6z"/>
	<path fill="#FFFFFF" d="M144.9,9c0,0-2,21.6-1.3,38.9c0.6,15.7,14.4,17.8,22.1,18.3c7.8,0.5,18.5-3.3,18.8-17
		c0.3-13.7-2-41.1-2-41.1l-14.2,2.1c0,0,1.3,22.6,0.7,37.6c-0.3,6.1-9.6,9.2-9.9-0.2c-0.3-11.7,2.5-38.6,2.5-38.6L144.9,9z"/>
	<path fill="#FFFFFF" d="M187.1,13.7l0.7,18.1l11.2,0.5c-0.1,10.9,0.4,23.6,1.2,37.1l17.2-0.5c-1-7.9-1.6-24.7-1.5-31.5
		c0.1-3.5-5.3-5.9-5.3-5.9l18.3-0.2l-1.8-19L187.1,13.7z"/>
	<g>
		<g>
			<path fill="#FFFFFF" d="M289.2,11.1L288.6,26l-25.3-0.9c0,0,2.3,1.5,2.3,3.8c0,1.7,0,1.7,0,1.7c1.1,0,3.6-0.1,4.6-0.1
				c5.3,0,9.3,0.5,12.2,1.5c6.5,2.4,9.7,8.4,9.7,18c0,0.4,0,1.1-0.6,3.7c-0.7,3.1-2.6,7.8-7.1,11c-3.7,2.8-8.8,4.1-15.3,4.1
				c-19.3,0-21.7-12.7-22.1-16.4l-0.1-1l9.6-5.5c0.1,0.6,0.2,1.1,1.2,3.4c1.4,2.8,4.5,6.2,11,6.2c4.8-0.4,7.1-2.4,7.1-6
				c0-5.5-2.7-8.3-8.1-8.3c-2.7,0-6.1,0.7-10.4,2.2l-8.4-3.7c1.7-17.8,2.4-24.8,2.4-25.9C251.4,14,289.2,11.1,289.2,11.1z"/>
		</g>
	</g>
	<g>
		<g>
			<path fill="#FFFFFF" d="M308.1,28.8c-1,2.9-1.2,5.1-1.2,7.9l-13.2-3.5c1.2-11.2,6.6-22.1,21.6-22c6.3,0,11.4,1.5,15.2,4.5
				c3.7,3,5.6,6.9,5.6,11.8c0,13-16.9,24.1-21.7,27l-1.3,0.7l23-3.2v14.8h-36.5c-0.7-7.2-1-11.7-1-13.6v-0.4l0.1-0.2
				c3.2-1.7,6.9-5.3,12.9-10.7c6.1-5.5,9.2-9.7,9.1-12.7c-0.1-5.4-9.6-8.7-14.3-3.5C307.5,25.6,308.7,27.2,308.1,28.8z"/>
		</g>
	</g>
	<g>
		<g>
			<path fill="#FFFFFF" d="M353.5,25.5l-10.3,0.1V12.6l25.1-0.5v55.3h-18.6c0,0,1.4-36.7,1.5-38.3C351.3,26.9,353.5,25.5,353.5,25.5
				z"/>
		</g>
	</g>
	<g>
		<g>
			<path fill="#FFFFFF" d="M383,59.6c-4.4-5.2-6.5-11.8-6.5-20c0-9.8,3.3-17.4,7.1-21.1c1.9-1.9,4.2-3.4,6.5-4.5
				c4.9-2.4,7.5-2.5,9.7-2.5c7,0,12.7,2.7,17.1,8.2c4.4,5.4,6.6,12.2,6.6,20.4c0,9.8-3.4,17.3-7.2,20.8c-1.8,1.8-4,3.2-6.5,4.2
				c-4.9,2.1-7.3,2.2-9.7,2.2C393.1,67.2,387.3,64.7,383,59.6z M407.8,40.3c0-7.5-3.1-12.6-7.7-13.3c-4.2-0.6-8.4,1.7-10,4.3
				c2.3,0.4,2.6,3.6,2.6,8.9c0,7.5,3.1,12.9,7.7,12.9C401.4,53.1,407.8,52,407.8,40.3z"/>
		</g>
	</g>
</g>
</svg>
