<?xml version="1.0" encoding="utf-8"?>
<!-- Generator: Adobe Illustrator 18.1.1, SVG Export Plug-In . SVG Version: 6.00 Build 0)  -->
<svg version="1.1" id="Layer_1" xmlns="http://www.w3.org/2000/svg" xmlns:xlink="http://www.w3.org/1999/xlink" x="0px" y="0px"
	 width="490px" height="80px" viewBox="0 0 490 80" enable-background="new 0 0 490 80" xml:space="preserve">
<g>
	<g>
		<path fill="#005E62" d="M10.5,19.6l2.6,50.2l10.9-2.6V54.7l9.6-0.6l0.3-13.7l-10.5,1c0,0,0-1.6,0-3.5c0-1.9-1.9-3.2-3.8-3.2
			l23-4.5l1-16C31.6,15.6,20.5,17.4,10.5,19.6z"/>
		<path fill="#005E62" d="M49.8,19.9l2.2,47l9.5-0.8c0.8-12.7,1.2-29.1,0.7-47.7C58,18.9,53.9,19.4,49.8,19.9z"/>
		<path fill="#005E62" d="M68.9,17.2l0.6,47.3l13.7,0.3l-1-22l9.3,21.7l11.5-0.3c-1.2-14.6-1.2-30.6-0.6-47.6l-10.2,0l-0.6,24
			l-8.6-25.2C77.8,15.5,73.1,16.2,68.9,17.2z"/>
		<path fill="#005E62" d="M144.7,29.6c3.3,9,2.5,28.1-4.5,36.8c-7,8.6-28.1,3.2-28.1,3.2l-1-49.2C131.6,13.7,141.8,21.8,144.7,29.6z
			 M122.9,38.6l-0.6,22.4c0,0,10.5,2.2,12.1-11.8c1.3-11.7-4.2-17.3-14.4-15.7C120,33.5,122.9,35.4,122.9,38.6z"/>
		<path fill="#005E62" d="M162.7,70.1c4.1-17.2,8.4-34.6,13.1-52.1l18.5-2.9c3.2,18.1,7.5,35.6,12.5,52.7c-5,0.8-10,1.7-15,2.9
			l-6.7-35.5l-1.9,0.3L179,71.6C172.7,71.8,166.3,72,162.7,70.1z"/>
		<path fill="#005E62" d="M176.1,51.8l18.2-1.9l1.3,10.9c-6-0.9-11.9-0.9-17.9,0L176.1,51.8z"/>
		<path fill="#005E62" d="M261.5,60.1c-6.4,13.7-35.1,8.6-35.1,8.6V16.7C270.8,3,267.9,46.4,261.5,60.1z M240.4,38.7l-0.3,19.5
			c0,0,12.8,0,13.1-14.7c0.3-14.7-16.9-10.9-16.9-10.9S240.8,34.3,240.4,38.7z"/>
		<path fill="#005E62" d="M270.5,35.8c-0.3-3.2-3.4-19,19.6-19.6c23-0.6,18.7,16.5,17.8,29c-1,12.5-5.5,22.5-17.3,23.2
			c-11.8,0.6-16.6-5.4-17.9-16.6C272.6,51.7,270.8,39,270.5,35.8z M289,58.9c5.3,0,7.5-5.1,8-13.8s-3.6-11.1-7.3-11s-7.5,2.3-7.2,11
			C282.9,53.7,284.4,58.9,289,58.9z"/>
		<path fill="#005E62" d="M397.6,37.5c-0.3-3.2-3-20.2,20-20.9c23-0.6,18,22.1,17.1,34.6c-1,12.5-6.6,18-16.8,18.6
			c-11.8,0.7-14.9-4.9-17.4-14.9C400.5,54.9,397.9,40.7,397.6,37.5z M416.5,59.3c5.3,0,7.5-5.1,8-13.8s-3.6-11.1-7.3-11
			c-3.7,0.1-7.5,2.3-7.2,11C410.4,54.1,411.9,59.3,416.5,59.3z"/>
		<path fill="#005E62" d="M314.3,31.2c-2.7,12.5-1.5,26.4,6.5,35s25.9,4.6,28.2-3.9c2.3-8.5,2.3-12.6,2.3-12.6l-10.9,0.6
			c0,0,0,9.9-5.1,9.7s-6.6-5.9-7-13.1c-0.4-5.5,0.8-10.4,3.7-10.7c3-0.4,5.5,1.6,5.7,6.8l15.9-3.2c0,0,0.2-7.5-3.8-15
			s-16.4-5.8-20.7-5.1S316.1,22.7,314.3,31.2z"/>
		<path fill="#005E62" d="M357.2,19.6c-0.9,5.3-1,10.9-0.4,16.6l11.6-0.4c-0.9,7.2-0.2,24.5,0.1,31.7c6.5,0.5,13.2-0.4,16.4-1.5
			c0,0-3.1-12.5-3-27c0-1.7-3.8-3.5-3.8-3.5l13.9-0.6L392,18L357.2,19.6z"/>
		<path fill="#005E62" d="M440.4,21.6c4.7-1.7,19-6,28.8-5.3c9.8,0.6,12.4,7.5,12.6,14.3s-4.7,14.7-11.7,15.5
			c4.3,0.5,13.4,5.4,15.1,20.2l-14.4,1.5c-0.3-7.6-3.9-16.1-14.1-15.3l0.1,13.5l-9.5,1.1l-2-37.5l-3,0.6L440.4,21.6z M469.1,30.9
			c-1-8.2-13.5-3.8-13.5-3.8l0.5,16.5C464.4,43.7,470.1,39.8,469.1,30.9z"/>
	</g>
	<g>
		<path fill="#FFFFFF" d="M4.8,13.8l2.6,50.2l10.9-2.6V48.9l9.6-0.6l0.3-13.7l-10.5,1c0,0,0-1.6,0-3.5s-1.9-3.2-3.8-3.2l23-4.5l1-16
			C25.9,9.8,14.8,11.6,4.8,13.8z"/>
		<path fill="#FFFFFF" d="M44.1,14.2l2.2,47l9.5-0.8c0.8-12.7,1.2-29.1,0.7-47.7C52.3,13.1,48.2,13.6,44.1,14.2z"/>
		<path fill="#FFFFFF" d="M63.2,11.4l0.6,47.3L77.6,59l-1-22l9.3,21.7l11.5-0.3c-1.2-14.6-1.2-30.6-0.6-47.6l-10.2,0l-0.6,24
			L77.2,9.5C72.1,9.7,67.4,10.4,63.2,11.4z"/>
		<path fill="#FFFFFF" d="M139,23.8c3.3,9,2.5,28.1-4.5,36.8c-7,8.6-28.1,3.2-28.1,3.2l-1-49.2C125.9,8,136.2,16,139,23.8z
			 M117.2,32.8l-0.6,22.4c0,0,10.5,2.2,12.1-11.8c1.3-11.7-4.2-17.3-14.4-15.7C114.3,27.7,117.2,29.6,117.2,32.8z"/>
		<path fill="#FFFFFF" d="M157,64.3c4.1-17.2,8.4-34.6,13.1-52.1l18.5-2.9c3.2,18.1,7.5,35.6,12.5,52.7c-5,0.8-10,1.7-15,2.9
			l-6.7-35.5l-1.9,0.3l-4.2,36.1C167,66,160.6,66.2,157,64.3z"/>
		<path fill="#FFFFFF" d="M170.4,46.1l18.2-1.9l1.3,10.9c-6-0.9-11.9-0.9-17.9,0L170.4,46.1z"/>
		<path fill="#FFFFFF" d="M255.8,54.4c-6.4,13.7-35.1,8.6-35.1,8.6V10.9C265.1-2.8,262.2,40.6,255.8,54.4z M234.8,33l-0.3,19.5
			c0,0,12.8,0,13.1-14.7c0.3-14.7-16.9-10.9-16.9-10.9S235.1,28.5,234.8,33z"/>
		<path fill="#FFFFFF" d="M264.8,30c-0.3-3.2-3.4-19,19.6-19.6c23-0.6,18.7,16.5,17.8,29c-1,12.5-5.5,22.5-17.3,23.2
			c-11.8,0.6-16.6-5.4-17.9-16.6C267,45.9,265.1,33.2,264.8,30z M283.3,53.1c5.3,0,7.5-5.1,8-13.8s-3.6-11.1-7.3-11
			c-3.7,0.1-7.5,2.3-7.2,11C277.2,47.9,278.7,53.1,283.3,53.1z"/>
		<path fill="#FFFFFF" d="M391.9,31.7c-0.3-3.2-3-20.2,20-20.9c23-0.6,18,22.1,17.1,34.6c-1,12.5-6.6,18-16.8,18.6
			c-11.8,0.7-14.9-4.9-17.4-14.9C394.8,49.1,392.2,34.9,391.9,31.7z M410.8,53.5c5.3,0,7.5-5.1,8-13.8s-3.6-11.1-7.3-11
			s-7.5,2.3-7.2,11C404.7,48.3,406.2,53.5,410.8,53.5z"/>
		<path fill="#FFFFFF" d="M308.6,25.4c-2.7,12.5-1.5,26.4,6.5,35c8,8.6,25.9,4.6,28.2-3.9s2.3-12.6,2.3-12.6l-10.9,0.6
			c0,0,0,9.9-5.1,9.7s-6.6-5.9-7-13.1c-0.4-5.5,0.8-10.4,3.7-10.7c3-0.4,5.5,1.6,5.7,6.8l15.9-3.2c0,0,0.2-7.5-3.8-15
			s-16.4-5.8-20.7-5.1C319.2,14.7,310.5,16.9,308.6,25.4z"/>
		<path fill="#FFFFFF" d="M351.5,13.8c-0.9,5.3-1,10.9-0.4,16.6l11.6-0.4c-0.9,7.2-0.2,24.5,0.1,31.7c6.5,0.5,13.2-0.4,16.4-1.5
			c0,0-3.1-12.5-3-27c0-1.7-3.8-3.5-3.8-3.5l13.9-0.6l-0.1-17L351.5,13.8z"/>
		<path fill="#FFFFFF" d="M434.7,15.8c4.7-1.7,19-6,28.8-5.3c9.8,0.6,12.4,7.5,12.6,14.3c0.2,6.8-4.7,14.7-11.7,15.5
			c4.3,0.5,13.4,5.4,15.1,20.2L465.1,62c-0.3-7.6-3.9-16.1-14.1-15.3l0.1,13.5l-9.5,1.1l-2-37.5l-3,0.6L434.7,15.8z M463.4,25.2
			c-1-8.2-13.5-3.8-13.5-3.8l0.5,16.5C458.7,37.9,464.5,34,463.4,25.2z"/>
	</g>
</g>
</svg>
