<?xml version="1.0" encoding="utf-8"?>
<!-- Generator: Adobe Illustrator 18.1.1, SVG Export Plug-In . SVG Version: 6.00 Build 0)  -->
<svg version="1.1" id="Layer_1" xmlns="http://www.w3.org/2000/svg" xmlns:xlink="http://www.w3.org/1999/xlink" x="0px" y="0px"
	 width="525px" height="80px" viewBox="0 0 525 80" enable-background="new 0 0 525 80" xml:space="preserve">
<path fill="#005E62" d="M43.7,22.9L7.4,22.5l-0.3,18l11.8-1.4c-0.4,9.7,0,19.8,1,30.4l15.4-2.7c0,0-1-22.3-1-24.9s-3.1-3.8-3.1-3.8
	l11.9-1.6L43.7,22.9z"/>
<path fill="#005E62" d="M51.1,21.6c-3.8,16.1-7.2,32.1-9.8,48.1L55,70.2c1.8-12.3,3.6-23.9,5.6-31.7l2,0c0.9,9.7,2.5,21.1,4.8,31.7
	L82.4,68c-4.6-13.6-10.7-34.2-14.6-51.1L51.1,21.6z"/>
<path fill="#005E62" d="M67.1,51.3l-12.5,1.3l-0.2,8.2c4.6-0.8,9.1-1.5,13.4-1.8L67.1,51.3z"/>
<path fill="#005E62" d="M83.2,21.2c1.2,11.5,1.9,32.4,1.6,44.6l11,0.4c0.4-5.7,1.3-11,1-15.5c0,0,6.1-0.5,8.7,8.6
	c2.3,8.1,2.4,12.4,2.4,12.4l11.8-2.1c0,0,0-21.6-10.7-25.2c0,0,11.9-4.8,9.7-28.3l-14.6,2.6c0,0,5.4,16.5-6.8,21.9l-0.5-21.1
	L83.2,21.2z"/>
<path fill="#005E62" d="M122.4,22l2.5,45.4l27.9-1.1l-0.9-9.5l-17.3,1l0.1-4.8l8.1-0.5l-0.4-9.3l-7.8,0.7l-0.4-10l18.6-2.4
	l-0.5-13.1C141.8,20.2,131.2,21.4,122.4,22z"/>
<path fill="#005E62" d="M177.4,20.5l2,16.4l10.1-0.2L187.8,68l17.3-2c0,0-0.3-20.6-0.5-24.3c-0.2-3.7-4.3-5.1-4.3-5.1l15.3-0.5
	l-0.3-16L177.4,20.5z"/>
<path fill="#005E62" d="M220.6,17.5c1.5,16.9,2.5,33.3,2.7,48.7l12-0.1l-0.2-16l6.2,0.2l0.7,17l12.3-1.8C252.6,52,252,33.9,252,17.2
	l-11.8,0.3l0.1,22l-6-0.2l0.4-21.6L220.6,17.5z"/>
<path fill="#005E62" d="M258.2,19.2c-0.1,14.7,0.8,30.4,2.2,46.9c7.5-1.2,18.1-2.4,26.9-2.6l-0.2-9.5l-17.8,1.4l0.5-6l11.7,0.1
	l0.4-12.5l-12.8,0.3l0.4-4.8l17.6,0.1l-0.1-14L258.2,19.2z"/>
<path fill="#005E62" d="M337.5,20.2c8,7,8.4,19.5,4.1,27.7s-18.9,8.9-18.9,8.9s3.5-0.1,3.9,3.4c0.2,2,0.9,9.8,0.9,9.8l-13.1,1.1
	c-1.4-13.3-2.1-26.4-2.2-40.1l-6.3,0.6l-1.1-12.6C304.7,19.1,329.5,13.2,337.5,20.2z M324,30.1l1.4,16.4c0,0,9.3-1.5,9.6-8.4
	C335.4,31.4,328.8,28.8,324,30.1z"/>
<path fill="#005E62" d="M349.2,17.9c-0.9,13.2,0,30,1.5,47.9l25.6-3.4l-0.4-9.3l-12.5,0.4c-0.9-11-0.6-23.3,0.4-36.3
	C359.1,17,354.3,17.3,349.2,17.9z"/>
<path fill="#005E62" d="M379.5,16.1c0,17.4,0.7,34,2.7,48.9l26.7-2.7l-0.4-9c-5.4,0-10.7,0.3-16,0.7l-0.5-5.5l13.5-1.3L405,35.5
	l-13.8-0.2l-0.1-5.2l18.1-0.1l0.4-14.3C399,16.3,388.9,16.5,379.5,16.1z"/>
<path fill="#005E62" d="M434.7,16.1c13.8,1.5,14.7,18,14.2,26.5s-0.7,16-10.2,20c-9.6,4-22.2,2.6-22.2,2.6L414.1,17
	C414.1,17,420.9,14.5,434.7,16.1z M427.5,33.7c0.1,3.7,0.3,20.5,0.3,20.5c3.8-0.1,10.2-0.3,10.5-11.9c0.3-12.2-6.1-12.4-13.2-11.7
	C425.1,30.6,427.4,31.4,427.5,33.7z"/>
<path fill="#005E62" d="M476.8,37.8c5-0.5,9.6-1.4,13.7-3c0,0-0.1-8.9-4.3-15.2s-12-6.4-16.5-6.1c-4.5,0.3-13.6,3.5-14.7,15.3
	s-4.1,35.5,14.2,38.1s17.9-22.4,17.9-22.4l-15.8-1.1l-0.9,5.1l6.8,1.2c0,0-0.7,5.7-5.6,5.2c-4.9-0.5-6.9-4.8-6.7-15.6
	c0.2-8.5,2.8-10.3,6.4-10C474.7,29.4,476.6,32.6,476.8,37.8z"/>
<path fill="#005E62" d="M493.7,15.8l3.4,46.2c8.7,0.2,17.2,0.1,25.4-0.6c0.1-3.8-0.2-7.7-0.8-11.5l-15.1,0.9l-0.6-4.4l13.1-2
	l-0.7-9.9l-14.1,0.8l0-5.5l18.4-1l0-16C512.8,13.5,503.1,14.5,493.7,15.8z"/>
<path fill="#FFFFFF" d="M38.7,18.2L2.4,17.8l-0.3,18l11.8-1.4c-0.4,9.7,0,19.8,1,30.4l15.4-2.7c0,0-1-22.3-1-24.9s-3.1-3.8-3.1-3.8
	l11.9-1.6L38.7,18.2z"/>
<path fill="#FFFFFF" d="M46.2,16.9C42.3,33,39,49,36.4,65l13.7,0.5c1.8-12.3,3.6-23.9,5.6-31.7l2,0c0.9,9.7,2.5,21.1,4.8,31.7
	l14.9-2.2c-4.6-13.6-10.7-34.2-14.6-51.1L46.2,16.9z"/>
<path fill="#FFFFFF" d="M62.1,46.7l-12.5,1.3l-0.2,8.2c4.6-0.8,9.1-1.5,13.4-1.8L62.1,46.7z"/>
<path fill="#FFFFFF" d="M78.3,16.5c1.2,11.5,1.9,32.4,1.6,44.6l11,0.4c0.4-5.7,1.3-11,1-15.5c0,0,6.1-0.5,8.7,8.6
	c2.3,8.1,2.4,12.4,2.4,12.4l11.8-2.1c0,0,0-21.6-10.7-25.2c0,0,11.9-4.8,9.7-28.3l-14.6,2.6c0,0,5.4,16.5-6.8,21.9l-0.5-21.1
	L78.3,16.5z"/>
<path fill="#FFFFFF" d="M117.4,17.3l2.5,45.4l27.9-1.1l-0.9-9.5l-17.3,1l0.1-4.8l8.1-0.5l-0.4-9.3l-7.8,0.7l-0.4-10l18.6-2.4
	l-0.5-13.1C136.9,15.5,126.3,16.7,117.4,17.3z"/>
<path fill="#FFFFFF" d="M172.4,15.8l2,16.4l10.1-0.2l-1.8,31.3l17.3-2c0,0-0.3-20.6-0.5-24.3c-0.2-3.7-4.3-5.1-4.3-5.1l15.3-0.5
	l-0.3-16L172.4,15.8z"/>
<path fill="#FFFFFF" d="M215.6,12.9c1.5,16.9,2.5,33.3,2.7,48.7l12-0.1l-0.2-16l6.2,0.2l0.7,17l12.3-1.8
	c-1.6-13.6-2.2-31.7-2.2-48.4l-11.8,0.3l0.1,22l-6-0.2l0.4-21.6L215.6,12.9z"/>
<path fill="#FFFFFF" d="M253.3,14.6c-0.1,14.7,0.8,30.4,2.2,46.9c7.5-1.2,18.1-2.4,26.9-2.6l-0.2-9.5l-17.8,1.4l0.5-6l11.7,0.1
	l0.4-12.5l-12.8,0.3l0.4-4.8l17.6,0.1l-0.1-14L253.3,14.6z"/>
<path fill="#FFFFFF" d="M332.5,15.5c8,7,8.4,19.5,4.1,27.7s-18.9,8.9-18.9,8.9s3.5-0.1,3.9,3.4c0.2,2,0.9,9.8,0.9,9.8l-13.1,1.1
	c-1.4-13.3-2.1-26.4-2.2-40.1l-6.3,0.6l-1.1-12.6C299.7,14.4,324.6,8.5,332.5,15.5z M319.1,25.4l1.4,16.4c0,0,9.3-1.5,9.6-8.4
	S323.9,24.2,319.1,25.4z"/>
<path fill="#FFFFFF" d="M344.3,13.3c-0.9,13.2,0,30,1.5,47.9l25.6-3.4l-0.4-9.3l-12.5,0.4c-0.9-11-0.6-23.3,0.4-36.3
	C354.2,12.4,349.3,12.6,344.3,13.3z"/>
<path fill="#FFFFFF" d="M374.5,11.4c0,17.4,0.7,34,2.7,48.9l26.7-2.7l-0.4-9c-5.4,0-10.7,0.3-16,0.7l-0.5-5.5l13.5-1.3l-0.6-11.6
	l-13.8-0.2l-0.1-5.2l18.1-0.1l0.4-14.3C394,11.7,383.9,11.8,374.5,11.4z"/>
<path fill="#FFFFFF" d="M429.8,11.4c13.8,1.5,14.7,18,14.2,26.5s-0.7,16-10.2,20c-9.6,4-22.2,2.6-22.2,2.6l-2.4-48.2
	C409.2,12.3,415.9,9.9,429.8,11.4z M422.5,29c0.1,3.7,0.3,20.5,0.3,20.5c3.8-0.1,10.2-0.3,10.5-11.9c0.3-12.2-6.1-12.4-13.2-11.7
	C420.1,25.9,422.5,26.7,422.5,29z"/>
<path fill="#FFFFFF" d="M471.9,33.1c5-0.5,9.6-1.4,13.7-3c0,0-0.1-8.9-4.3-15.2c-4.2-6.4-12-6.4-16.5-6.1
	c-4.5,0.3-13.6,3.5-14.7,15.3s-4.1,35.5,14.2,38.1s17.9-22.4,17.9-22.4l-15.8-1.1l-0.9,5.1l6.8,1.2c0,0-0.7,5.7-5.6,5.2
	c-4.9-0.5-6.9-4.8-6.7-15.6c0.2-8.5,2.8-10.3,6.4-10C469.7,24.7,471.6,27.9,471.9,33.1z"/>
<path fill="#FFFFFF" d="M488.8,11.2l3.4,46.2c8.7,0.2,17.2,0.1,25.4-0.6c0.1-3.8-0.2-7.7-0.8-11.5l-15.1,0.9l-0.6-4.4l13.1-2
	l-0.7-9.9l-14.1,0.8l0-5.5l18.4-1l0-16C507.9,8.9,498.1,9.8,488.8,11.2z"/>
</svg>
