<?xml version="1.0" encoding="utf-8"?>
<!-- Generator: Adobe Illustrator 18.1.1, SVG Export Plug-In . SVG Version: 6.00 Build 0)  -->
<svg version="1.1" id="Layer_1" xmlns="http://www.w3.org/2000/svg" xmlns:xlink="http://www.w3.org/1999/xlink" x="0px" y="0px"
	 width="480px" height="80px" viewBox="0 0 480 80" enable-background="new 0 0 480 80" xml:space="preserve">
<g>
	<g>
		<path fill="#005E62" d="M11,10.8l-0.9,18.1l14.3-0.2c-1.6,10.4-2.3,22.7-2.6,35.9l16.8,0.2c-0.5-8.2,0.2-24.2,0.5-29.5
			c0.3-4.6-6-7.1-6-7.1l17-0.2l-0.4-17.9L11,10.8z"/>
		<path fill="#005E62" d="M47.6,60.2c4-18.5,8.2-35.6,13.2-49.2l18.5-1.6c3,17.9,7,34.1,11.5,49.2l-14.5,2
			c-2.5-11.7-4.3-23-5.3-33.9l-2.9,0.4c-2.3,10.2-4.2,22.8-5.9,36.4L47.6,60.2z"/>
		<path fill="#005E62" d="M63,42.3l14.6,0.4l0.4,8.6c-5.1-0.7-11.1-0.3-17.4,0.4L63,42.3z"/>
		<path fill="#005E62" d="M93.9,11.9c-1.2,17.1-1.3,34.1,0,50.9l15.6-1.5c-1.1-6.1-1.7-11.9-1.6-17.4c0,0,11.2,3.1,11.9,19.8
			l13.7-2.6c0,0-1.3-22.1-15-24.2c0,0,14.3-5.3,12.6-29.1c-5.4-1-10.8-0.6-16.3,0.5c0,0,4,23.6-8.4,24.5l1.5-20.5
			C103,11.7,98.3,11.5,93.9,11.9z"/>
		<path fill="#005E62" d="M136.4,13.8c-1,14-0.9,30.6-0.2,48.3c9.5,0,18.9-0.3,28.2-1.3V49.4l-18.8,1.3v-6.6l9.3-0.5l0.7-10.6h-10.4
			l0.2-6l20.5-0.7l-0.4-14.3C154.7,13.4,144.5,14.3,136.4,13.8z"/>
		<path fill="#005E62" d="M192.4,14.7c-0.5,0,0.4,16.1,0.4,16.1s13-0.9,12.8-0.4S205.4,65,205.4,65l14.1-1.8c0,0,0.2-21.8,0.2-26.4
			s-5.5-6.4-5.5-6.4l14.6-0.2l0.4-17.6C215.5,12.6,202.8,13.1,192.4,14.7z"/>
		<path fill="#005E62" d="M233.5,13.4c-1,16.4-0.9,34.4-0.2,53.4l12.6-0.5l1.1-22.9l7.1,0.5l0.2,19.9l14.8,0.2
			c-1.3-18.6-1.7-36.5-1.1-53.2l-13.4,0.7l-0.9,20.7l-5.7-0.4l0.2-17.2L233.5,13.4z"/>
		<path fill="#005E62" d="M274,15.2c-0.3,15.8,0.2,31.2,1.5,46.1c8.4,0.9,18,1,28.2,0.7l0.7-11.5L285,50.9l0.2-5.9l11.2-0.4V33.2
			h-10.8l0.2-5.3l19.8-0.5l0.5-13.7L274,15.2z"/>
		<path fill="#005E62" d="M349.9,9c14.1-1.5,20.3,3.8,21.6,12.1s1.6,13.7,0.9,25.8c-0.7,12.1-5.7,16.8-17,17.6
			c-11.3,0.7-19-5.1-20.3-9.5c-2.4-8.2-3.3-20.9-2.7-29.3C333,16.3,335.8,10.5,349.9,9z M354.5,54.6c6,0,7-7.9,7.5-14.3
			c0.5-6.4-0.7-12.1-6.6-12.4c-5.9-0.4-8.1,3.8-8.1,11.9S349,54.6,354.5,54.6z"/>
		<path fill="#005E62" d="M349.9,62.4c-0.4,9.3,0.4,11.9,7.5,13.9s14.8,2,14.8,2c1.5-4.5,2.4-8.8,2.4-12.8c0,0-10.1-0.4-14.3-0.5
			c-4.2-0.2-2.6-3.8-2.6-3.8L349.9,62.4z"/>
		<path fill="#005E62" d="M376.4,45.4c1.1,12.8,6,18.3,17.7,17.7c11.7-0.5,15.7-7.9,17.2-17s1.6-27.1,0.9-33.5L399,12.5
			c0,0-0.2,30.7-0.5,35.7c-0.4,4.9-6.6,7.7-8.1,0.9s-0.5-27.4,0.7-35.7l-14.8,1.3C376.3,14.7,375.5,33.8,376.4,45.4z"/>
		<path fill="#005E62" d="M418.4,9.9c-1,19.3-0.8,38.1,0.7,56.5l10.4-0.5c0.5-17.4,1.4-36.7,2.6-57.3L418.4,9.9z"/>
		<path fill="#005E62" d="M436.1,14.3c-0.4,6.6-0.3,14,0.4,22.3l23.8-2.9l-26,14.5l1.8,13.7c13,1.5,25,2.2,35.7,1.6l2.7-18.8
			c-9.1,2.7-18.5,4.8-28.2,6l23.4-12.8c-0.4-8.6-0.5-20.3,0.9-28.4C460.4,9.9,436.1,14.3,436.1,14.3z"/>
	</g>
	<g>
		<path fill="#FFFFFF" d="M6.4,5.1L5.5,23.3l14.3-0.2c-1.6,10.4-2.3,22.7-2.6,35.9L34,59.1c-0.5-8.2,0.2-24.2,0.5-29.5
			c0.3-4.6-6-7.1-6-7.1l17-0.2L45.2,4.4L6.4,5.1z"/>
		<path fill="#FFFFFF" d="M43,54.5C47,36,51.2,19,56.2,5.3l18.5-1.6c3,17.9,7,34.1,11.5,49.2l-14.5,2c-2.5-11.7-4.3-23-5.3-33.9
			l-2.9,0.4c-2.3,10.2-4.2,22.8-5.9,36.4L43,54.5z"/>
		<path fill="#FFFFFF" d="M58.4,36.6L73,37l0.4,8.6c-5.1-0.7-11.1-0.3-17.4,0.4L58.4,36.6z"/>
		<path fill="#FFFFFF" d="M89.3,6.2c-1.2,17.1-1.3,34.1,0,50.9l15.6-1.5c-1.1-6.1-1.7-11.9-1.6-17.4c0,0,11.2,3.1,11.9,19.8
			l13.7-2.6c0,0-1.3-22.1-15-24.2c0,0,14.3-5.3,12.6-29.1c-5.4-1-10.8-0.6-16.3,0.5c0,0,4,23.6-8.4,24.5l1.5-20.5
			C98.3,6,93.7,5.8,89.3,6.2z"/>
		<path fill="#FFFFFF" d="M131.7,8.1c-1,14-0.9,30.6-0.2,48.3c9.5,0,18.9-0.3,28.2-1.3V43.7L140.9,45v-6.6l9.3-0.5l0.7-10.6h-10.4
			l0.2-6l20.5-0.7l-0.4-14.3C150,7.7,139.9,8.6,131.7,8.1z"/>
		<path fill="#FFFFFF" d="M187.7,9c-0.5,0,0.4,16.1,0.4,16.1s13-0.9,12.8-0.4c-0.2,0.5-0.2,34.6-0.2,34.6l14.1-1.8
			c0,0,0.2-21.8,0.2-26.4s-5.5-6.4-5.5-6.4l14.6-0.2L224.5,7C210.9,7,198.2,7.4,187.7,9z"/>
		<path fill="#FFFFFF" d="M228.9,7.7c-1,16.4-0.9,34.4-0.2,53.4l12.6-0.5l1.1-22.9l7.1,0.5l0.2,19.9l14.8,0.2
			c-1.3-18.6-1.7-36.5-1.1-53.2l-13.4,0.7l-0.9,20.7l-5.7-0.4L243.7,9L228.9,7.7z"/>
		<path fill="#FFFFFF" d="M269.3,9.5c-0.3,15.8,0.2,31.2,1.5,46.1c8.4,0.9,18,1,28.2,0.7l0.7-11.5l-19.4,0.4l0.2-5.9l11.2-0.4V27.5
			h-10.8l0.2-5.3l19.8-0.5l0.5-13.7L269.3,9.5z"/>
		<path fill="#FFFFFF" d="M345.3,3.3c14.1-1.5,20.3,3.8,21.6,12.1s1.6,13.7,0.9,25.8c-0.7,12.1-5.7,16.8-17,17.6
			c-11.3,0.7-19-5.1-20.3-9.5c-2.4-8.2-3.3-20.9-2.7-29.3C328.3,10.6,331.2,4.8,345.3,3.3z M349.9,48.9c6,0,7-7.9,7.5-14.3
			c0.5-6.4-0.7-12.1-6.6-12.4c-5.9-0.4-8.1,3.8-8.1,11.9S344.4,48.9,349.9,48.9z"/>
		<path fill="#FFFFFF" d="M345.3,56.7c-0.4,9.3,0.4,11.9,7.5,13.9s14.8,2,14.8,2c1.5-4.5,2.4-8.8,2.4-12.8c0,0-10.1-0.4-14.3-0.5
			c-4.2-0.2-2.6-3.8-2.6-3.8L345.3,56.7z"/>
		<path fill="#FFFFFF" d="M371.8,39.7c1.1,12.8,6,18.3,17.7,17.7c11.7-0.5,15.7-7.9,17.2-17s1.6-27.1,0.9-33.5l-13.4-0.2
			c0,0-0.2,30.7-0.5,35.7s-6.6,7.7-8.1,0.9s-0.5-27.4,0.7-35.7L371.6,9C371.6,9,370.8,28.1,371.8,39.7z"/>
		<path fill="#FFFFFF" d="M413.7,4.2c-1,19.3-0.8,38.1,0.7,56.5l10.4-0.5c0.5-17.4,1.4-36.7,2.6-57.3L413.7,4.2z"/>
		<path fill="#FFFFFF" d="M431.5,8.6c-0.4,6.6-0.3,14,0.4,22.3l23.8-2.9l-26,14.5l1.8,13.7c13,1.5,25,2.2,35.7,1.6l2.7-18.8
			c-9.1,2.7-18.5,4.8-28.2,6l23.4-12.8c-0.4-8.6-0.5-20.3,0.9-28.4C455.8,4.2,431.5,8.6,431.5,8.6z"/>
	</g>
</g>
</svg>
