<?xml version="1.0" encoding="utf-8"?>
<!-- Generator: Adobe Illustrator 18.1.1, SVG Export Plug-In . SVG Version: 6.00 Build 0)  -->
<svg version="1.1" id="Layer_1" xmlns="http://www.w3.org/2000/svg" xmlns:xlink="http://www.w3.org/1999/xlink" x="0px" y="0px"
	 width="300px" height="180px" viewBox="0 0 300 180" enable-background="new 0 0 300 180" xml:space="preserve">
<path fill="#F38B00" d="M280,11.6C193.8-3.1,105.7-3.2,19.5,11.2c0,0.1,0,0.1,0,0.2c3.5,6.6,5,19,0.6,39.7C16,70.6,8.7,91.5,2.1,102
	c0,0.1,0,0.3-0.1,0.4c97-18.5,199-18.5,296,0c-6.8-10.3-14.4-31.5-18.5-51.2C275.2,30.5,276.6,18.2,280,11.6z"/>
<path fill="#008996" d="M3.7,108.4L33,167.2c60.1-34.9,117.7,12.3,117.7,12.3s58.6-46.8,118.3-12.3l29-58.9
	C204,89,99.9,90.1,3.7,108.4z"/>
<path fill="#D9272E" d="M119.9,66c0.5-0.3,1.1-0.5,1.6-0.8c5.8-3.4,26.1-14.8,26-27.9c0-5-2-8.9-6.1-11.9c-4.1-3-9.5-4.4-16.3-4.1
	c-10.5,0.4-17.4,5.5-21.6,12.2c-2.8,1.7-5.5,3.4-8.1,5.1c1.2,2.2,2.3,4.3,3.5,6.5c4.9,0.8,9.8,1.6,14.8,2.5c-0.2-8,4.1-13.2,9-13.6
	c5-0.4,7.3,2,7.2,5.2c-0.1,3.1-3.8,7.4-11.2,13.3c-7.3,5.8-13,9.9-16.9,11.9c0,0.1-0.1,0.2-0.1,0.2c0,0.1,0,0.3,0,0.4
	c-0.1,1.9,0,6.5,0.6,13.8c14.8-1.2,30-1.8,45.1-1.8c0-5-0.1-10-0.1-15C138.2,63.2,129,64.5,119.9,66z"/>
<path fill="#D9272E" d="M186.1,22.9c-5.9-0.2-11.9-0.4-17.9-0.5c0.9-1.8,1.8-3.5,2.7-5.3c-3.6-0.3-7.3-0.6-11-0.9
	c-0.3,2.1-0.6,4.1-0.8,6.2c0,4.3,0,8.6,0,13c3,0,6,0.1,9,0.1c-0.3,14-0.7,28-1.1,42c7.4,0.2,14.8,0.6,22.2,1.1
	c0.9-1.6,1.9-3.2,2.9-4.8c-1-0.7-2.1-1.4-3.1-2.1C188.3,55.4,187.4,39.1,186.1,22.9z"/>
<path fill="#D9272E" d="M77,25.7c-6.1,0.7-12.2,1.6-18.2,2.5c-6.2,1-9.3,1.5-9.2,1.5c-0.2,0.7-4,12.6-5.7,20.3
	c-2.9,0.2-5.8,0.5-8.7,0.7c2.4,2,4.9,3.9,7.2,5.9c2.7,0.7,5.5,1.5,8.2,2.2c0,0,2.3-3.8,10.4-4c6.1-0.1,8.4,4,8,9.5
	c-0.3,3.6-2.9,5.9-8.1,7.1c-7,1.1-10-1.8-11.2-4.4c-0.9-2.1-0.9-2.7-0.9-3.2c-2.2-1.9-4.5-3.7-6.8-5.6c-0.8,2.6-1.5,5.2-2.2,7.8
	c0.7,0.9,1.3,1.8,2,2.8c-1.1,0.8-2.3,1.7-3.4,2.5c0,0.3,2.9,16.5,22.4,13.3c6.9-1.1,12.6-3.2,16.8-6.4c5-3.8,7.3-8.6,8.2-11.7
	c0.7-2.5,0.8-3.3,0.8-3.7c0.5-9.5-2.5-15.1-9.2-16.7c-2.9-0.7-7.2-0.7-12.7,0c-1.1,0.1-3.7,0.6-4.8,0.7c0.3-1.8,0.6-3.7,0.9-5.5
	c7.8-0.8,15.8-1.4,23.9-1.9c0.8-4.9,1.6-9.8,2.6-14.7c-1.3-2.5-2.7-5.1-4-7.6C81.2,19.9,79.1,22.8,77,25.7z"/>
<path fill="#D9272E" d="M255.5,55.4c-0.6-11.6-8.6-28.5-28.8-30.2c-11.6-0.9-22.4,5.3-23.5,21.2c-1,15.9,5.8,35.3,27.8,37.5
	C253,86.2,256.3,67.1,255.5,55.4z M231.2,66.7c-8.4-0.2-9.8-10.4-9.6-15.8c0.1-3.6,2.4-9.9,7.4-9.7c7.8,0.4,10.1,8.1,10.7,12.1
	C240.5,57.3,239.7,67,231.2,66.7z"/>
<path fill="#D9272E" d="M102.2,79c-1-1.6-2.1-3.1-3.1-4.7c1.4-0.7,2.8-1.4,4.3-2.2c0.4,1.2,0.8,2.4,1.2,3.7
	C103.8,76.8,103,77.9,102.2,79z"/>
<path fill="#FFFFFF" d="M52.6,20.7c6.7-1,13.6-1.9,20.5-2.7c3.4-0.4,6.9-0.7,10.4-1.1c-1,5.2-1.9,10.3-2.8,15.5
	c-8.7,0.5-21.1,1.5-29.5,2.4c2.5,1,3.1,3.5,2.8,5.5c1.2-0.2,4-0.6,5.2-0.8c5.9-0.8,9.7-0.6,13.6,0.3c8.4,1.9,12,12.9,9.2,21.2
	c-1.6,4.9-3.4,8.4-8.8,12.4c-4.5,3.4-10.6,5.6-18,6.7c-20.8,3.4-24.2-13.7-24.1-14c3.6-2.7,7.3-5.3,11.1-7.9c0,0.6,0.1,1.2,1,3.4
	c1.3,2.7,4.6,5.7,12.1,4.6c5.5-1.2,8.4-3.6,8.7-7.4c0.4-5.8-2.2-10.1-8.7-10C46.3,49,43.9,53,43.9,53c-2.9-0.8-5.9-1.6-8.8-2.4
	c-0.5,0,6.8-27.2,7.5-28.4C42.6,22.3,45.9,21.7,52.6,20.7z"/>
<path fill="#FFFFFF" d="M111.3,41.3c-5.4-1-10.7-1.8-15.9-2.7c-0.3-12.9,10.8-24.5,28.2-25.1c7.4-0.3,13.3,1.2,17.6,4.4
	c4.4,3.1,6.6,7.3,6.5,12.5c0,13.8-21.8,25.8-28,29.4c-0.6,0.3-1.1,0.6-1.7,0.8c9.8-1.6,19.7-2.9,29.5-4.1c0,5.3,0,10.5,0,15.8
	c-16.3,0-32.5,0.6-48.4,1.9c-0.7-7.7-0.8-12.5-0.7-14.5c0-0.1,0-0.3,0-0.4c0-0.1,0.1-0.2,0.1-0.3c4.1-2.2,10.2-6.4,18.1-12.6
	c8-6.2,11.6-10.8,12.1-14c0.4-2.7-2.2-5.5-6-6.5c-3.5-1-9.5,0.1-12.1,3C115.3,31.3,111.9,35.2,111.3,41.3z"/>
<path fill="#FFFFFF" d="M172.3,28.5c-3.2-0.1-9-0.2-12.2-0.2c0-4.6,0-9.1,0.1-13.7c9.8,0,19.5,0.1,29.1,0.5
	c1.4,19.5,2.4,39.1,2.8,58.6c-7.9-0.6-15.8-0.9-23.8-1.2c0.5-13.6,0.9-25.6,1.2-39.3C169.5,32.3,170.3,29.5,172.3,28.5z"/>
<path fill="#FFFFFF" d="M263.2,49.5c0.7,12.2-3.2,32.4-26.7,30.1C213,77.2,205.9,56.8,207.1,40c1.3-16.7,13-23.3,25.5-22.3
	C254.4,19.4,262.8,37.2,263.2,49.5z M235,34.5c-4.5-0.3-10.1,2-11.8,4.9c1.9-0.3,3.7,1,3.7,5.2c0.1,5.6,1.1,16.4,10.1,16.7
	c9.1,0.2,10.1-9.9,9.4-14.1C245.7,43,243.4,35,235,34.5z"/>
<path fill="#FFEDDB" d="M39.7,47.3c-0.2,0-0.3-0.1-0.5-0.1c1.5-7.8,3.4-15.6,5.6-23.3c11.4-1.4,22.9-2.9,34.5-4.3
	c-0.1,0.2-0.1,0.4-0.2,0.7c-11.2,1.6-22.3,3.3-33.2,4.9C43.5,32.5,41.4,39.9,39.7,47.3z"/>
<path fill="#FFEDDB" d="M76.2,65.2c-0.1-0.2-0.3-0.4-0.4-0.6c4.6-5.8,2.3-15.4-0.2-18.5c-4-4.8-14.4-4.5-20.9-3.4c0-0.2,0-0.4,0-0.5
	c6.3-1,17.3-2.8,22,3.2C79.7,49.3,81.9,59.8,76.2,65.2z"/>
<path fill="#FFEDDB" d="M41.2,64.6c-2.2,1.2-4.5,2.5-6.6,3.7c-0.1-0.2-0.2-0.4-0.3-0.6c2.3-1.7,4.7-3.4,7.1-5.1
	c0.1,0.3,0.3,0.6,0.4,1c1.1,2.4,3,3.8,4.5,4.6c4.2,2.3,9.3,2.2,12.8-0.1c0.1,0.2,0.2,0.4,0.3,0.7C52.8,73,45,70.8,41.2,64.6z"/>
<path fill="#FFEDDB" d="M99.1,35.8c-0.2-0.1-0.5-0.1-0.7-0.2c3.2-11.2,11.4-18.4,23.5-19.7c10-1.1,17.9,3.1,20.8,7.5
	c-0.2,0.1-0.4,0.2-0.6,0.4c-3.8-4.1-11-7.4-20-6.5C112.2,18.2,102.2,25.1,99.1,35.8z"/>
<path fill="#FFEDDB" d="M102.3,71.1c-0.2,0-0.4,0.1-0.7,0.1c-0.3-3.6-0.6-7.1-0.9-10.7c0.1-0.1,0.2-0.1,0.3-0.2
	c6.5-4,16.1-10.7,22.7-16.8c0.2,0.2,0.3,0.5,0.5,0.7c-6.6,6.1-15.8,13.1-22.3,17.1C102.1,64.7,102.2,67.9,102.3,71.1z"/>
<path fill="#FFEDDB" d="M118.1,63.3c0-0.2,0-0.4,0-0.7c8.7-0.9,17.6-1.8,26.5-2.7c0,0.4,0.1,0.9,0.1,1.3
	C135.7,62,126.9,62.6,118.1,63.3z"/>
<path fill="#FFEDDB" d="M162.4,25.6c0-2.9-0.1-5.8-0.1-8.7c8.5,0.1,16.9,0.2,25.3,0.3c0,0.3,0,0.6,0,0.9c-8,0-16,0.1-24,0.1
	c-0.2,2.4-0.4,4.9-0.6,7.3C162.9,25.5,162.6,25.5,162.4,25.6z"/>
<path fill="#FFEDDB" d="M171.2,69.9c0.3-12.4,0.5-24.8,0.8-37.2c0.3,0,0.5,0,0.8,0c-0.1,12.4-0.2,24.8-0.3,37.2
	C172,69.9,171.6,69.9,171.2,69.9z"/>
<path fill="#FFEDDB" d="M220.9,70.7c-7.7-6.1-12.1-17.4-10.9-30c0.6-6.8,3.1-12.3,7.3-15.9c4.1-3.6,10-5.2,16.2-4.7
	c5.6,0.5,10.6,2.2,14.9,5.1c-0.1,0.1-0.3,0.3-0.4,0.4c-7.3-4.9-20.8-7-29.9,0.1c-4,3.2-6.1,8.3-6.8,14.8
	c-1.2,12.2,2.6,23.2,10.1,29.6C221.2,70.3,221,70.5,220.9,70.7z"/>
<path fill="#FFEDDB" d="M242.5,62.6c0-0.2-0.1-0.3-0.1-0.5c1.6-0.8,2.9-2,4-3.6c2.4-3.8,2.6-8.9,2.2-11.3c-0.6-4.2-1.8-7.5-3.8-10
	c0.2-0.2,0.5-0.4,0.7-0.6c2,2.6,3.9,5.7,4.4,10C250.5,52.4,248.2,60.5,242.5,62.6z"/>
<path fill="#005E62" d="M39.8,111.2c2.6,7.8,5.2,15.7,7.8,23.5c3.8-0.9,7.6-1.8,11.4-2.7c0.8,2.3,1.7,4.7,2.5,7
	c-6.9,1.1-13.7,2.2-20.4,3.3c-4-9.6-8.2-19.3-12.4-28.9C32.4,112.7,36.1,111.9,39.8,111.2z"/>
<path fill="#005E62" d="M82.2,126.2c0.3,1.2,0.6,2.5,0.9,3.7c4.6-0.8,9.3-1.5,13.9-2.2c0.5,2.4,1,4.7,1.5,7.1
	c-7.6,0.7-15.1,1.5-22.6,2.3c-2.7-9.8-5.4-19.5-8.2-29.3c8.1-1,16.2-1.9,24.4-2.8c0.6,2.8,1.2,5.6,1.8,8.3
	c-4.9,0.6-9.7,1.2-14.6,1.8c0.3,1.2,0.6,2.4,0.9,3.7c3.8-0.7,7.5-1.3,11.3-2c0.6,2.6,1.2,5.2,1.8,7.9
	C89.7,125.2,85.9,125.7,82.2,126.2z"/>
<path fill="#005E62" d="M133,102.8c3.6,9.9,6.9,19.8,9.9,29.7c-3.4,0.1-6.8,0.2-10.1,0.4c-0.5-1.9-1.1-1.8-1.6-3.7
	c-2.3,0.1-4.7,0.2-7,0.3c-0.2,1.9-0.4,1.8-0.6,3.8c-3.4,0.1-6.7,0.3-10.1,0.4c1.4-10,3-19.9,4.7-29.9
	C123.1,103.4,128.1,103.1,133,102.8z M124.5,123.2c1.9-0.1,3.8-0.1,5.7-0.2c-0.7-2.8-1.5-5.6-2.3-8.4c-0.9,0-1.7,0.1-2.6,0.1
	C125,117.5,124.8,120.4,124.5,123.2z"/>
<path fill="#005E62" d="M168.5,120.8c1,0,1.9,0,2.9-0.1c2.3-0.1,4.5-0.2,6.8-0.3c1.4-0.1,2.9-0.2,4.3-0.3c-0.2,1-0.3,2-0.5,3
	c-0.2,1.7-0.9,4.1-1.8,5.5c-2,3.1-5.4,5.3-12.5,5.2c-4.7-0.1-8.2-1.7-10.1-3.7c-0.9-1-1.6-2.3-2.1-3.9c-1.1-3.1-1.2-5.5-1.1-8.9
	c0.1-1.9,0.1-3.4,0.2-4.5c0.1-1.1,0.4-2.4,1-3.9c0.6-1.6,1.4-2.7,2.3-3.5c2-1.6,6.1-3,11.8-3.1c6.5-0.2,10,2.1,11.7,4.9
	c0.6,0.9,1,2,1.2,3.2c0.4,2.4,0.5,4.3,0.3,6.8c-3.3,0.3-6.6,0.6-9.9,0.9c0.1-1.8-0.1-3.3-0.6-4.4c-0.5-1.1-1.6-1.5-3.1-1.2
	c-1.8,0.3-3,0.8-3.4,1.6c-0.4,0.8-0.7,2.7-0.8,5.8c0,0.8-0.1,1.6-0.1,2.4c0,0.9,0,2.7,0.2,3.2c0.5,1,1.3,2,3.2,1.8
	c2.6,0.1,3.6-0.8,4-3c0,0,0,0,0,0c-1.3,0.1-2.7,0.1-4,0.2c0,0,0-0.2,0-0.6C168.3,122.8,168.4,121.8,168.5,120.8z"/>
<path fill="#005E62" d="M218.9,105.8c3.5,0.2,7,0.3,10.5,0.5c-1.6,6.2-3.3,12.5-4.9,18.7c-0.7,2.7-1.1,4.1-2.6,6.2
	c-0.8,1-1.7,1.9-2.7,2.4c-2.1,1.1-5.6,1.8-10.3,1.4c-4.3-0.4-7.3-1.6-8.8-3.1c-0.7-0.7-1.2-1.6-1.6-2.7c-0.6-2.2-0.5-3.8,0-6.3
	c1.2-6.1,2.4-12.3,3.6-18.4c3.5,0.1,7.1,0.3,10.6,0.4c-1.5,6.3-2.9,12.5-4.4,18.8c-0.1,0.6-0.2,1.1-0.4,1.7
	c-0.1,0.6-0.3,2.1-0.2,2.5c0.4,0.9,0.8,1.3,2.5,1.4c1.6,0.2,2.6-0.6,3.1-1.1c0.2-0.2,0.4-0.5,0.5-1c0.2-0.5,0.3-1,0.4-1.2
	c0.1-0.5,0.3-1.1,0.4-1.6C216,118.1,217.4,112,218.9,105.8z"/>
<path fill="#005E62" d="M248.8,129.4c-0.5,1.2-0.9,2.4-1.4,3.7c4.7,0.4,9.3,0.8,14,1.3c-1,2.3-1.9,4.7-2.9,7
	c-7.2-1.1-14.5-2.3-21.9-3.3c3.3-9.7,6.7-19.5,10.2-29.2c8,1,16,2,23.9,3.1c-1.2,2.7-2.3,5.5-3.5,8.2c-4.8-0.6-9.5-1.2-14.3-1.7
	c-0.5,1.2-0.9,2.4-1.4,3.6c3.8,0.3,7.6,0.5,11.5,0.8c-1.1,2.6-2.1,5.2-3.2,7.8C256.2,130.2,252.5,129.8,248.8,129.4z"/>
<path fill="#005E62" d="M28.7,113.4c-1,1.8-2.1,3.7-3.1,5.5c2.5,0.6,4.9,1.2,7.4,1.8c0.7-0.8,1.3-1.7,2-2.5
	C32.9,116.6,30.8,115,28.7,113.4z"/>
<path fill="#005E62" d="M61.5,139c-0.8,2-1.5,4-2.3,6.1c-1-0.6-2.1-1.2-3.1-1.8c-1-1.9-2-3.8-3-5.6c1.4-0.8,2.7-1.6,4.1-2.5
	C58.6,136.4,60.1,137.7,61.5,139z"/>
<path fill="#005E62" d="M67.8,107.8c-0.7,1.8-1.4,3.6-2.1,5.4c1.8,0.6,3.5,1.3,5.3,1.9c0,0,1.9-2.7,1.9-2.8c0-0.1-2.4-2.6-2.4-2.6
	C69.6,109,68.7,108.4,67.8,107.8z"/>
<path fill="#005E62" d="M94,113.3c-0.5,1.8-0.9,3.7-1.4,5.5c-0.8-0.6-1.7-1.3-2.5-1.9c0,0-1.1-4.6-1.1-4.8c0-0.2,0.5-1.7,0.5-1.7
	C91,111.3,92.5,112.3,94,113.3z"/>
<path fill="#005E62" d="M93.4,124.7c-0.5,1.9-0.9,3.9-1.4,5.8c-0.4-0.3-0.8-0.5-1.2-0.8c-0.8-1.5-1.5-2.9-2.3-4.4
	c0.7-0.7,1.5-1.3,2.2-2C91.7,123.8,92.6,124.2,93.4,124.7z"/>
<path fill="#005E62" d="M98.6,134.8c-0.4,2-0.9,4-1.3,6c-0.6-0.7-1.2-1.4-1.8-2.2c-0.3-1.3-0.7-2.7-1-4c0.3-0.6,0.5-1.3,0.8-1.9
	C96.4,133.3,97.5,134,98.6,134.8z"/>
<path fill="#005E62" d="M143,132.5c-0.1,2-0.1,3.9-0.2,5.9c-0.6-0.3-1.1-0.6-1.7-1c-1.1-1.8-2.2-3.7-3.3-5.5
	C139.5,132.1,141.3,132.3,143,132.5z"/>
<path fill="#005E62" d="M168.9,130.1c-0.2-1.9-0.4-3.8-0.6-5.8c0.4-0.8,0.9-1.5,1.3-2.3c2,0,4,0,6.1,0.1c-0.1,0.7-0.2,1.4-0.2,2
	c-1.2,1.6-2.3,3.1-3.5,4.7C170.9,129.2,169.9,129.7,168.9,130.1z"/>
<path fill="#005E62" d="M212.6,104.9c0.5,1.8,1,3.6,1.5,5.3c-1.4,0.1-2.8,0.1-4.3,0.2c0-0.4,0.1-0.8,0.1-1.2c0.5-0.9,1-1.8,1.5-2.7
	C211.9,106,212.3,105.4,212.6,104.9z"/>
<path fill="#005E62" d="M229.4,106.3c0.7,1.8,1.4,3.6,2.1,5.4c-1,0.8-1.9,1.6-2.9,2.4c-0.7-0.1-1.3-0.1-2-0.2
	c-0.4-0.9-0.7-1.8-1.1-2.7C226.8,109.6,228.1,108,229.4,106.3z"/>
<path fill="#005E62" d="M270.8,111.8c1,2,2,3.9,3,5.9c-2.7,0.7-5.4,1.4-8,2.1c-0.1-1.1-0.1-2.3-0.2-3.4c1-1,2-1.9,3-2.9
	C269.3,112.9,270,112.4,270.8,111.8z"/>
<path fill="#005E62" d="M263.1,122.8c0.9,2.1,1.9,4.1,2.8,6.2c-0.6,0.2-1.1,0.4-1.7,0.6c-0.9,0.1-1.9,0.3-2.8,0.4
	c-0.7-0.6-1.4-1.2-2.1-1.8c0.1-0.8,0.1-1.5,0.2-2.3C260.6,124.9,261.8,123.9,263.1,122.8z"/>
<path fill="#005E62" d="M261.4,134.3c0.9,2.2,1.9,4.3,2.8,6.5c-1.3,0.2-2.5,0.4-3.8,0.6c-0.9,0-1.9,0-2.8,0
	c-0.6-0.9-1.1-1.7-1.7-2.6c0.2-0.6,0.4-1.2,0.5-1.8C258.1,136.2,259.8,135.2,261.4,134.3z"/>
<path fill="#005E62" d="M182.5,120.1c0.3,1.9,0.6,3.8,0.8,5.7c-1.1,1-2.2,2.1-3.4,3.1c-1-0.8-2-1.7-3-2.5
	C178.8,124.3,180.6,122.2,182.5,120.1z"/>
<path fill="#005E62" d="M236.7,137.9c0.7,2,1.5,4,2.2,6.1c2.7,0,5.4,0,8.1,0.1c-0.7-2.5-1.3-5.1-2-7.6c-1.6-0.3-3.1-0.6-4.7-0.8
	C239.1,136.4,237.9,137.2,236.7,137.9z"/>
<path fill="#005E62" d="M200.2,136.2c0,0-1.7-4.5-2-8.7c1.8,0.8,3.6,1.5,5.4,2.3c-0.2,1-0.4,1.9-0.6,2.9
	C202.1,133.9,201.1,135.1,200.2,136.2z"/>
<path fill="#FFFFFF" d="M37,116.6c2.7,8,5.4,16.1,8,24.1c3.9-0.9,7.8-1.9,11.7-2.8c0.9,2.4,1.7,4.8,2.6,7.2c-7,1.1-14,2.2-21,3.4
	c-4.1-9.9-8.4-19.8-12.7-29.6C29.4,118.1,33.2,117.4,37,116.6z"/>
<path fill="#FFFFFF" d="M80.5,132c0.3,1.3,0.6,2.5,1,3.8c4.7-0.8,9.5-1.6,14.3-2.3c0.5,2.4,1,4.8,1.5,7.3
	c-7.8,0.8-15.5,1.5-23.2,2.4c-2.8-10-5.6-20-8.4-30c8.3-1,16.6-2,25-2.9c0.6,2.9,1.3,5.7,1.9,8.6c-5,0.6-10,1.3-14.9,1.9
	c0.3,1.2,0.6,2.5,1,3.7c3.9-0.7,7.7-1.4,11.6-2c0.6,2.7,1.2,5.4,1.8,8.1C88.2,131,84.3,131.5,80.5,132z"/>
<path fill="#FFFFFF" d="M132.6,107.9c3.6,10.2,7,20.3,10.2,30.5c-3.5,0.1-6.9,0.2-10.4,0.4c-0.5-1.9-1.1-2.7-1.7-4.7
	c-2.4,0.1-4.8,0.2-7.2,0.3c-0.2,2-0.4,2.8-0.7,4.8c-3.5,0.1-6.9,0.3-10.4,0.4c1.4-10.2,3-20.4,4.9-30.7
	C122.5,108.6,127.5,108.3,132.6,107.9z M123.9,128.9c1.9-0.1,3.9-0.2,5.8-0.2c-0.8-2.9-1.5-5.7-2.3-8.6c-0.9,0-1.8,0.1-2.7,0.1
	C124.4,123.1,124.1,126,123.9,128.9z"/>
<path fill="#FFFFFF" d="M169,126.5c1,0,2,0,3-0.1c2.3-0.1,4.6-0.2,7-0.3c1.5-0.1,3-0.2,4.4-0.3c-0.2,1-0.3,2-0.5,3.1
	c-0.2,1.7-0.9,4.2-1.8,5.6c-2,3.2-5.6,5.5-12.9,5.3c-4.8-0.1-8.4-1.7-10.3-3.8c-0.9-1.1-1.7-2.4-2.2-4c-1.1-3.2-1.2-5.6-1.1-9.2
	c0.2-5.9,3.7-14.7,15-15.3c6.7-0.4,10.9,2.2,12.6,5c0.6,0.9,1.1,2,1.3,3.3c0.5,2.5,0.5,4.4,0.3,7c-3.4,0.3-6.8,0.6-10.1,0.9
	c0.1-1.9-0.1-3.4-0.6-4.5c-1.2-2.4-5.2-2.8-6.7,0.4c-0.4,0.8-0.7,2.8-0.9,5.9c0,0.8-0.1,1.6-0.1,2.4c0,0.9,0,2.8,0.2,3.3
	c0.5,1,1.3,2,3.2,1.8c2.7,0.1,3.7-0.8,4.1-3c0,0,0,0,0,0c-1.4,0.1-2.7,0.1-4.1,0.2c0,0,0-0.2,0-0.6
	C168.8,128.5,168.9,127.5,169,126.5z"/>
<path fill="#FFFFFF" d="M220.7,111.1c3.6,0.2,7.2,0.3,10.8,0.5c-1.7,6.4-3.3,12.8-5,19.2c-0.7,2.8-1.1,4.2-2.7,6.3
	c-0.8,1-1.7,1.9-2.8,2.5c-2.1,1.1-5.8,1.8-10.6,1.4c-4.4-0.4-7.5-1.7-9-3.2c-0.7-0.7-1.3-1.7-1.6-2.8c-0.6-2.2-0.5-3.9,0-6.4
	c1.2-6.3,2.4-12.6,3.7-18.9c3.6,0.1,7.2,0.3,10.9,0.4c-1.5,6.4-3,12.8-4.5,19.3c-0.1,0.6-0.2,1.1-0.4,1.7c-0.1,0.7-0.3,2.1-0.2,2.5
	c0.4,0.9,0.8,1.4,2.5,1.4c1.6,0.2,2.7-0.6,3.1-1.1c0.2-0.2,0.4-0.5,0.6-1.1c0.2-0.6,0.3-1,0.4-1.3c0.1-0.6,0.3-1.1,0.4-1.7
	C217.7,123.7,219.2,117.4,220.7,111.1z"/>
<path fill="#FFFFFF" d="M251.2,135.7c-0.5,1.3-0.9,2.5-1.4,3.8c4.8,0.4,9.6,0.8,14.3,1.3c-1,2.4-2,4.8-2.9,7.2
	c-7.4-1.2-14.9-2.3-22.4-3.4c3.4-10,6.9-20,10.5-29.9c8.2,1,16.4,2.1,24.5,3.2c-1.2,2.8-2.4,5.6-3.6,8.5c-4.9-0.6-9.8-1.2-14.7-1.8
	c-0.5,1.2-0.9,2.5-1.4,3.7c3.9,0.3,7.8,0.6,11.7,0.9c-1.1,2.7-2.2,5.3-3.2,8C258.8,136.5,255,136.1,251.2,135.7z"/>
<path fill="#C8E8E8" d="M38.6,145.7c-3.6-8.6-7.2-17.1-10.9-25.7c2.7-0.6,5.4-1.1,8.1-1.7c0,0.2,0.1,0.4,0.1,0.6
	c-2.1,0.7-4.3,1.4-6.4,2.1c3.2,8.2,6.5,16.3,9.7,24.5C39,145.7,38.8,145.7,38.6,145.7z"/>
<path fill="#C8E8E8" d="M45.6,142.6c-0.1-0.2-0.2-0.5-0.3-0.7c3.5-0.7,7.1-1.3,10.6-2c0.1,0.5,0.3,0.9,0.4,1.4
	C52.7,141.7,49.1,142.1,45.6,142.6z"/>
<path fill="#C8E8E8" d="M75.2,141.1c-2.5-9-5-18-7.5-26.9c7.3-0.9,14.6-1.8,21.9-2.7c0,0.2,0,0.5,0.1,0.7c-6.8,1-13.5,2.1-20.3,3.2
	c2.1,8.5,4.3,17.1,6.4,25.6C75.6,141.1,75.4,141.1,75.2,141.1z"/>
<path fill="#C8E8E8" d="M79.2,126.5c-0.1-0.2-0.2-0.5-0.3-0.7c3.4-0.5,6.9-1.1,10.3-1.6c0.1,0.4,0.1,0.8,0.2,1.2
	C86,125.7,82.6,126.1,79.2,126.5z"/>
<path fill="#C8E8E8" d="M81.9,138c-0.1-0.2-0.1-0.5-0.2-0.7c4.3-0.7,8.6-1.5,12.9-2.2c0.1,0.5,0.1,0.9,0.2,1.4
	C90.5,137,86.2,137.5,81.9,138z"/>
<path fill="#C8E8E8" d="M115.3,137.4c-0.3,0-0.5,0.1-0.8,0.1c1.4-9,2.9-18,4.3-27c4.2-0.3,8.5-0.5,12.7-0.7c0,0.2,0.1,0.4,0.1,0.7
	c-3.9,0.5-7.8,0.9-11.8,1.4C118.4,120.4,116.8,128.9,115.3,137.4z"/>
<path fill="#C8E8E8" d="M123.6,131.3c0-0.2,0-0.4,0-0.7c2.7-0.1,5.3-0.2,8-0.4c-0.9-3.4-1.8-6.8-2.7-10.2c0.2,0,0.4,0,0.6,0
	c1.3,3.8,2.5,7.7,3.8,11.5C130.1,131.5,126.8,131.4,123.6,131.3z"/>
<path fill="#C8E8E8" d="M160,135.6c-3.2-2.1-5.3-11.1-3.1-17.4c3-8.4,10.8-9.2,14.1-9.2c5.4,0.1,9.9,2.8,10.6,6.5
	c-0.1,0-0.3,0.1-0.4,0.1c-1.7-3.4-4.9-5.1-10.3-5.3c-3.5-0.1-10.1,1-12.7,8.4c-2.1,6-0.9,13.1,2.1,16.4
	C160.1,135.3,160,135.4,160,135.6z"/>
<path fill="#C8E8E8" d="M175.5,121.8c-0.2,0-0.3,0-0.5,0c0-2.6-1.6-5.3-4.2-5.6c0-0.4,0-0.8,0-1.1
	C174.3,115.1,175.5,118.5,175.5,121.8z"/>
<path fill="#C8E8E8" d="M170,128c0-0.2,0-0.4,0-0.6c4-0.2,7.9-0.3,11.9-0.4c0,0.4-0.1,0.9-0.1,1.3C177.8,128.2,173.9,128.1,170,128z
	"/>
<path fill="#C8E8E8" d="M202.9,136.6c-0.1,0-3.1-1.1-2.1-6.5c0.9-4.8,3.6-18,3.6-18.2c0-0.2,0.1-0.4,0.1-0.6
	c2.6,0.1,5.2,0.3,7.8,0.4c-0.1,0.3-0.1,0.5-0.2,0.8c-2.2,0.1-4.5,0.2-6.7,0.3c-0.5,2.6-3,13.1-3.9,17.5c-0.8,4.1,1.3,5.6,1.4,5.7
	C203,136.2,203,136.4,202.9,136.6z"/>
<path fill="#C8E8E8" d="M217.8,132c-0.2,0-0.4,0-0.6,0c1.5-6.4,3-12.8,4.5-19.2c2.6,0.1,5.3,0.2,7.9,0.3c-0.1,0.2-0.2,0.5-0.2,0.7
	c-2.2,0.2-4.5,0.3-6.7,0.5C221.1,120.2,219.5,126.1,217.8,132z"/>
<path fill="#C8E8E8" d="M241.8,143.1c-0.2,0-0.5,0-0.7-0.1c3.1-9,6.1-18.1,9.2-27.1c7.3,0.9,14.5,1.8,21.8,2.8
	c-0.1,0.2-0.2,0.4-0.3,0.7c-6.9-0.7-13.8-1.3-20.6-1.9C248,126,244.9,134.5,241.8,143.1z"/>
<path fill="#C8E8E8" d="M263.6,131.6c-3.3-0.5-6.7-1.1-10-1.6c0.1-0.2,0.1-0.4,0.2-0.6c3.4,0.3,6.8,0.6,10.2,1
	C263.8,130.7,263.7,131.2,263.6,131.6z"/>
<path fill="#C8E8E8" d="M261.8,143.5c-4.2-0.8-8.4-1.5-12.6-2.2c0-0.2,0.1-0.4,0.1-0.6c4.3,0.4,8.7,0.9,13,1.3
	C262.2,142.5,262,143,261.8,143.5z"/>
</svg>
