<?xml version="1.0" encoding="utf-8"?>
<!-- Generator: Adobe Illustrator 18.1.1, SVG Export Plug-In . SVG Version: 6.00 Build 0)  -->
<svg version="1.1" id="Layer_1" xmlns="http://www.w3.org/2000/svg" xmlns:xlink="http://www.w3.org/1999/xlink" x="0px" y="0px"
	 width="310px" height="200px" viewBox="-21 6 310 200" enable-background="new -21 6 310 200" xml:space="preserve">
<g>
	<path fill="#FFFFFF" d="M266.1,70.4c-2.9-11.6-4-29.8,6-48.1c-42.3-8.4-90.6-12.1-138.1-12.1c0,0,0,0,0,0c0,0,0,0,0,0
		c-47.4,0-95.8,3.7-138.1,12.1c9.9,18.3,8.9,36.5,6,48.1C-1.6,84.1-13.6,108-21,119.2l36.9,69.6c0,0,22.5-13.9,52.8-13.9
		c28,0,52.1,16.6,65.3,26.9c13.2-10.3,37.3-26.9,65.3-26.9c30.3,0,52.8,13.9,52.8,13.9l36.9-69.6C281.6,108,269.6,84.1,266.1,70.4z"
		/>
	<path fill="#008C95" d="M279.2,122.5c-96.3-15.2-194.3-15.2-290.6,0l30.1,57c50.1-22.5,90.2-6.7,115.2,12.9
		C159,172.8,199,157,249.2,179.5L279.2,122.5L279.2,122.5z"/>
	<path fill="#EF8200" d="M262.6,26.6c-85.2-13.5-172.1-13.5-257.3,0c14.1,25.6-1.4,65.3-17.2,89.8c96.6-15.3,195.1-15.3,291.7,0
		C264,91.9,248.5,52.2,262.6,26.6z"/>
	<g>
		<g>
			<path fill="#D3222A" d="M73.2,39.7c-1.3-2.5-2.6-5-4-7.5c0,0,0,0,0,0c-3.4,0.3-6.9,0.7-10.3,1c-6.8,0.8-13.5,1.7-20.2,2.7
				c-6.6,1-9.9,1.6-9.8,1.5c-0.8,1.1-7.9,28-7.4,28c0,0,0.1,0,0.1,0c0,0,0,0,0,0c2.4,1.9,4.8,3.9,7.1,5.8c2.7,0.7,5.4,1.5,8.1,2.2
				c0,0,2.2-3.8,10.3-4c1,0,1.8,0.1,2.6,0.3c0.2,1.1,0.3,2.4,0.1,3.7c-0.4,3.8-3.1,6.1-8.5,7.3c-2.2,0.3-4.1,0.3-5.6,0
				c-0.6-1.5-0.6-1.9-0.6-2.4c-2.2-1.8-4.4-3.6-6.7-5.5c0,0,0,0,0,0c0,0,0,0,0,0c0,0,0,0,0,0c0,0,0,0,0,0c-3.7,2.5-7.3,5.1-10.9,7.7
				c1.6,6,5.7,10.2,11,12.5c3.1,3.6,8.6,6.9,18.4,5.7c14.8-1.8,22.4-9.9,24.7-17.9c2.6-8.9-0.4-16-5.3-18.9c-1.3-3.3-3.5-5.9-6.8-7
				c3.7-0.3,7.4-0.5,11.1-0.8C71.4,49.4,72.3,44.5,73.2,39.7z"/>
			<path fill="#D3222A" d="M127,33.1c-4.3-3.1-10.1-4.6-17.4-4.3c-17.2,0.6-28.1,12.1-27.8,24.7c0,0,0,0,0,0
				c1.2,2.1,2.3,4.3,3.4,6.4c4.8,0.8,9.6,1.6,14.5,2.5c-0.2-7.9,4.1-13,8.8-13.4c2.2-0.2,3.9,0.2,5,1c-1.6,2.9-5.1,6.6-11,11.3
				c-7.7,6-13.9,10.3-18,12.4C84.7,79,84.9,85,85.5,88.7c0,0,0,0,0,0c1,1.5,2.1,3.1,3.1,4.6l0,0c14.6-1.2,29.6-1.8,44.5-1.8
				c0-1.6,0-3.2,0-4.7c0,0,0.1,0,0.1,0c0-5.2,0-10.4,0-15.6c-5,0.6-10.1,1.2-15.1,1.9c7.3-5.3,15.2-12.7,15.2-20.9
				c0-1.1,0.2-5.6,0.2-6.8C133.5,40.3,131.3,36.2,127,33.1z"/>
			<path fill="#D3222A" d="M177.9,88.2c-0.4-19.3-1.4-38.5-2.8-57.8c-9.5-0.4-19.1-0.5-28.7-0.5c-0.1,1.1-0.7,5.6-0.9,7.6
				c0,4.3,0,8.5,0,12.8c3,0,5.9,0,8.9,0.1c-0.3,13.8-0.7,27.6-1.1,41.4c7.3,0.2,14.6,0.6,21.9,1.1C176,91.4,177.9,88.2,177.9,88.2z"
				/>
			<path fill="#D3222A" d="M248.1,64.3c-0.4-12.1-8.7-29.6-30.2-31.3c-9.9-0.8-19.4,3.3-23.3,13.5c-3.1,3.4-5.3,8.3-5.7,14.8
				c-1,15.7,5.7,34.8,27.4,37c8.8,0.9,14.6-1.7,18.3-5.8C246.5,87.8,248.6,73.6,248.1,64.3z M222.2,76c-8.9-0.2-9.9-10.9-10-16.4
				c0-1.2-0.1-2.2-0.4-2.9c0.7-0.3,1.6-0.5,2.5-0.5c7.7,0.4,10,8,10.6,11.9c0.3,1.9,0.3,5-0.7,7.8C223.6,75.9,223,76,222.2,76z"/>
		</g>
		<g>
			<g>
				<path fill="#FFFFFF" d="M38.8,35.9c6.6-1,13.4-1.9,20.2-2.7c3.4-0.4,6.8-0.7,10.3-1c-1,5.1-1.9,10.2-2.7,15.3
					C57.9,48,45.7,49,37.4,49.8c2.4,1,3.3,3.5,2.7,5.4c4.9-0.9,11.3-2.4,18.5-0.5c12,3.1,11.7,24.2,0.4,33.1
					c-15.6,12.3-37.3,8.6-41.5-7.2c3.6-2.6,7.2-5.2,10.9-7.7c0,0.6,0.1,1.2,1,3.3c1.3,2.6,4.6,5.7,11.9,4.6c5.5-1.2,8.1-3.6,8.5-7.3
					c0.6-5.5-2.2-10-8.6-9.8c-8.7,0.2-11,4.2-11,4.2c-2.9-0.8-5.8-1.6-8.7-2.3c-0.5,0,6.7-26.8,7.4-28C29,37.5,32.2,36.9,38.8,35.9z
					"/>
			</g>
			<g>
				<path fill="#FFFFFF" d="M97.5,56.2c-5.3-0.9-10.5-1.8-15.7-2.6c-0.3-12.7,10.6-24.2,27.8-24.7c7.3-0.3,13.1,1.2,17.4,4.3
					c4.3,3.1,6.5,7.2,6.4,12.4c0,13.6-21.5,25.4-27.6,29c-0.6,0.3-1.1,0.5-1.7,0.8c9.7-1.6,19.4-2.9,29.1-4c0,5.2,0,10.4,0,15.6
					c-16,0-32,0.6-47.7,1.9c-0.5-3.8-0.8-9.7-0.7-14.9c4.1-2.1,10.2-6.4,18-12.4c7.8-6.1,11.4-10.6,11.9-13.8
					c0.4-2.6-2.2-5.4-5.9-6.4c-3.4-0.9-9.4,0.1-11.9,2.9C101.5,46.3,98.1,50.2,97.5,56.2z"/>
			</g>
			<g>
				<path fill="#FFFFFF" d="M158.7,43.6c-3.2-0.1-9.2-0.1-12.4-0.2c0-4.5,0-9,0.1-13.5c9.6,0,19.2,0.1,28.7,0.5
					c1.4,19.3,2.4,38.5,2.8,57.8c-7.7-0.5-15.6-0.9-23.4-1.2c0.5-13.4,0.7-24.9,1.2-38.3C155.8,46.4,156.4,44.4,158.7,43.6z"/>
			</g>
		</g>
		<g>
			<path fill="#FFFFFF" d="M248.1,64.3c0.7,12.1-3.1,31.9-26.3,29.6c-23.2-2.3-30.2-22.4-29-38.9c1.2-16.5,12.8-23,25.1-22
				C239.3,34.6,247.6,52.2,248.1,64.3z M220.2,49.5c-7.2-0.7-10.3,2.2-11.7,4.9c2.2-0.4,3.6,1,3.7,5.2c0.1,5.6,1.1,16.2,10,16.4
				c9,0.2,9.9-9.8,9.2-13.9C230.9,57.9,228,50.3,220.2,49.5z"/>
		</g>
		<g>
			<g>
				<path fill="#FCE6CC" d="M24.6,63.9c-0.2,0-0.3-0.1-0.5-0.1c1.5-7.7,4.3-16.6,6.5-24.2c13.4-2.6,35.8-4.8,35.8-4.8l-0.2,0.5
					c0,0-23.4,3.6-34.1,5.3C29.8,47.8,27.5,54.2,24.6,63.9z"/>
			</g>
			<g>
				<path fill="#FCE6CC" d="M62.6,80c-0.2-0.1-0.4-0.4-0.6-0.6c3.2-7.7,1.9-15.3-0.5-18.4c-3.9-5.1-14.3-4.2-20.7-3.1
					c0-0.2,0-0.4,0.1-0.6c5.8-1.2,17.1-3.3,21.7,2.5C65.6,63.7,66.8,72,62.6,80z"/>
			</g>
			<g>
				<path fill="#FCE6CC" d="M26.7,78.5c-2.2,1.2-4.2,2.4-6.3,3.6c-0.1-0.2-0.2-0.4-0.3-0.6c2.3-1.7,4.6-3.3,7-5
					c0.1,0.3,1.4,3.8,5,5.4c4.2,2,10,1.5,14-0.3c0.1,0.2,0.2,0.4,0.3,0.6C39.5,85.6,30.4,84.6,26.7,78.5z"/>
			</g>
			<g>
				<path fill="#FCE6CC" d="M85,51.8c-0.2-0.1-0.6-0.1-0.9-0.2c1.8-13.5,12-19.1,23.9-20.5c10-1.2,18.1,2.8,21,7.1
					c-0.2,0.1-0.4,0.2-0.6,0.3c-3.7-4.1-11.4-7-20.2-6.1C98.4,33.5,88,38.5,85,51.8z"/>
			</g>
			<g>
				<path fill="#FCE6CC" d="M88,86.3c-0.2,0-0.4,0-0.6,0.1c-0.3-3.5-0.5-10.1-0.5-11.2c6.4-3.8,15.9-10.6,22.7-16.8
					c0.2,0.2,0.3,0.4,0.5,0.6C102.7,66.3,88.4,76,88.4,76S88.1,80.9,88,86.3z"/>
			</g>
			<g>
				<path fill="#FCE6CC" d="M104.5,77.9c0-0.2,0-0.4,0-0.6c8.6-0.9,17.6-2.5,26.4-3.4c0,0.4,0,1.5,0,2
					C122.1,76.5,113.1,77.2,104.5,77.9z"/>
			</g>
			<g>
				<path fill="#FCE6CC" d="M148.6,41.2c0-2.9,0-6.3,0-9.1c8.3,0,16.1,0.3,24.5,0.5c0,0.3,0,0.6,0,0.9c-7.9,0-15.3-0.1-23.2-0.1
					c-0.2,2.4-0.5,5.4-0.6,7.8C149.1,41.2,148.8,41.2,148.6,41.2z"/>
			</g>
			<g>
				<path fill="#FCE6CC" d="M156.8,84.9c0.3-12.2,0.9-24.3,1.1-36.5c0.2,0,0.5,0,0.7,0c-0.1,12.2,0,24.3-0.1,36.5
					C158.1,85,157.2,85,156.8,84.9z"/>
			</g>
			<g>
				<path fill="#FCE6CC" d="M206.1,85.5c-7.9-6.2-11.9-17.5-11.1-30c0.4-7.4,2.9-12.4,7.1-15.9c4.1-3.5,9.8-4.9,16.2-4.3
					c5.8,0.5,10.7,2.4,14.9,5.3c-0.1,0.1-0.3,0.3-0.4,0.4c-7.2-4.8-20.3-7.1-29.2,0c-4,3.1-6,8.2-6.7,14.6
					c-1.2,12,2.6,22.9,9.9,29.2C206.6,84.8,206.3,85.3,206.1,85.5z"/>
			</g>
			<g>
				<path fill="#FCE6CC" d="M228,77.6c0-0.2-0.3-0.5-0.3-0.6c5.3-2.9,6.5-8.9,5.9-15c-0.4-4.1-2-7.4-4-9.8c0.2-0.2,0.3-0.3,0.5-0.5
					c2,2.2,4.2,5.4,4.8,9.7C235.6,67.1,234.6,74,228,77.6z"/>
			</g>
		</g>
	</g>
	<g>
		<g>
			<path fill="#005E62" d="M44.6,146.9c-3.8,0.9-7.5,1.7-11.3,2.6c-2.5-7.7-5-15.5-7.6-23.2c-3.6,0.7-7.3,1.4-10.9,2.1
				c-1,1.8-2.1,3.8-3,5.4c0,0,0,0,0,0c4.2,9.7,8.3,19.5,12.3,29.3c6.8-1.1,13.7-2.2,20.7-3.3c0,0,0,0,0,0c0.8-2.1,1.5-4,2.2-6
				C46.2,151.5,45.4,149.2,44.6,146.9z"/>
			<path fill="#005E62" d="M82.2,142.8c-1.5,0.2-3,0.5-4.5,0.7c0.3-1.2,0.6-2.4,0.9-3.7c-0.4-1.9-0.8-3.9-1.3-5.8c0.1,0,0.4,0,0.5,0
				c0.5-1.8,0.9-3.6,1.4-5.4c-0.6-2.7-1.2-5.5-1.8-8.2c-8.1,0.9-16.1,1.7-24,2.7c-0.7,1.7-2.1,5.3-2.1,5.3c0,0,5.5,19.7,8.2,29.6
				c7.6-0.8,15.2-1.5,22.8-2.2c0,0,0.9-4,1.3-5.9C83.1,147.5,82.6,145.1,82.2,142.8z"/>
			<path fill="#005E62" d="M118.1,118.4c-4.9,0.4-14.9,0.9-14.9,0.9l-1,5.1c-1.9,10.1-3.5,20.1-5,30.2c3.4-0.1,6.8-0.3,10.2-0.4
				c0.2-1.9,0.4-2.7,0.7-4.7c2.4-0.1,4.7-0.2,7.1-0.2c0.5,1.9,1.1,2.7,1.6,4.6c3.4-0.1,10.2-0.3,10.2-0.3c0.1-1.8,0.1-3.9,0.2-5.8
				C124.4,138,121.4,128.4,118.1,118.4z M109.4,135.5c0.9,0,1.7-0.1,2.6-0.1c0.3,1,0.5,2,0.8,3c-1.3,0.1-2.5,0.1-3.7,0.2
				C109.2,137.6,109.3,136.6,109.4,135.5z"/>
			<path fill="#005E62" d="M166.4,126.1c-1.2-5.6-5.9-8-12.7-8c-6,0-11.8,1.3-13.9,6.6c-1.4,3.4-2.1,9.1-1.1,15.6
				c0.1,10.7,5.9,14.8,13.4,14.8c8.1,0,14.6-2.7,15-13.7c0,0-0.3-2-0.5-3c0.3,0,0.5,0,0.8-0.1c0.2-1.8,0.4-4.3-0.3-6.9
				C167,129.5,166.8,127.6,166.4,126.1z M152.5,136.4c-0.1,1-0.2,3.5-0.2,3.5c0.1,0.9,0.2,1.9,0.3,2.8c-1.5,0-2.7-0.4-3.1-1.2
				c0-0.2,0-0.3,0-0.5c0.1-2.9,0.5-5,0.9-5.8c1.5-3.2,5.5-2.7,6.6-0.4c0.2,0.5,0.4,1,0.5,1.6c-0.7,0-1.3,0.1-2,0.1
				C154.4,136.4,153.5,136.4,152.5,136.4z"/>
			<path fill="#005E62" d="M214.6,127.6c-0.7-1.8-1.3-3.4-2-5.2c-3.4-0.2-6.9-0.4-10.3-0.5c-1.1,4.6-2.8,12.6-4.3,18.1
				c-1,3.7-3,4.5-4.6,4.4c1-4.3,3-12.4,4.4-18.3c0,0,0,0,0,0c-0.5-1.8-1.1-3.4-1.6-5.2c-3.5-0.2-7-0.3-10.4-0.5
				c-1.2,6-2.4,12.1-3.6,18.1c-0.4,2-0.4,3.7-0.3,5.6c0.2,2.1,1.4,6.3,1.4,6.4c0.2,0.8,0.8,2,1.6,2.8c1.5,1.5,4.5,2.8,8.9,3.2
				c4.7,0.4,8.3-0.3,10.4-1.3c1.1-0.6,2-1.4,2.8-2.4c1.6-2.1,2-3.5,2.7-6.2C211.3,140.2,213,133.9,214.6,127.6
				C214.6,127.6,214.6,127.6,214.6,127.6C214.6,127.6,214.6,127.6,214.6,127.6C214.6,127.6,214.6,127.6,214.6,127.6
				C214.6,127.6,214.6,127.6,214.6,127.6z"/>
			<path fill="#005E62" d="M252.8,142.1c1.2-2.8,3.5-8.3,3.6-8.3c-1-1.9-1.9-3.8-2.9-5.8c-7.8-1.1-15.6-2.1-23.5-3.1
				c-3.5,9.6-6.9,19.1-10.2,28.7c0.8,2.4,2,6.3,2,6.4c0,0,0,0,0,0c7.4,1.1,14.8,2.3,22.1,3.5c1-2.3,2.9-7,2.9-7c0,0-1.5-3.7-1.5-3.7
				c1.1-2.6,3.2-7.9,3.2-7.9c0,0-1-2.3-1.6-3.5C248.9,141.6,250.8,141.9,252.8,142.1z"/>
		</g>
		<g>
			<g>
				<path fill="#FFFFFF" d="M22.9,131.6c2.6,7.9,5.2,15.9,7.8,23.8c3.8-0.9,7.7-1.8,11.6-2.7c0.8,2.4,1.7,4.7,2.5,7.1
					c-6.9,1.1-13.8,2.1-20.7,3.3c-4-9.8-8.2-19.5-12.3-29.3C15.5,133.1,19.2,132.3,22.9,131.6z"/>
			</g>
			<g>
				<path fill="#FFFFFF" d="M65.8,147c0.3,1.2,0.6,2.5,0.9,3.7c4.7-0.7,9.4-1.5,14.1-2.2c0.5,2.4,1,4.8,1.5,7.2
					c-7.6,0.7-15.3,1.4-22.8,2.2c-2.7-9.9-5.4-19.8-8.2-29.6c8.2-1,16.4-1.9,24.7-2.7c0.6,2.8,1.2,5.6,1.8,8.4
					c-4.9,0.6-9.8,1.2-14.7,1.8c0.3,1.2,0.6,2.5,0.9,3.7c3.8-0.7,7.6-1.3,11.4-1.9c0.6,2.7,1.2,5.3,1.7,8
					C73.3,146,69.6,146.5,65.8,147z"/>
			</g>
			<g>
				<path fill="#FFFFFF" d="M117.3,123.5c3.5,10,6.8,20.1,9.9,30.1c-3.4,0.1-6.8,0.2-10.2,0.3c-0.5-1.9-1.1-2.7-1.6-4.6
					c-2.4,0.1-4.7,0.2-7.1,0.2c-0.2,1.9-0.5,2.7-0.7,4.7c-3.4,0.1-6.8,0.2-10.2,0.4c1.4-10.1,3.1-20.1,5-30.2
					C107.3,124.1,112.3,123.8,117.3,123.5z M108.5,144.1c1.9-0.1,3.8-0.1,5.7-0.2c-0.7-2.8-1.5-5.7-2.3-8.5c-0.9,0-1.7,0.1-2.6,0.1
					C109.1,138.4,108.8,141.3,108.5,144.1z"/>
			</g>
			<g>
				<path fill="#FFFFFF" d="M153,141.9c1,0,12.7-0.5,14.2-0.6c-0.4,11-6.9,13.8-15,13.7c-7.9,0-14-4.7-13.4-16.8
					c0.3-5.8,3.7-15,14.9-15c14.4,0,14.5,10.4,13.8,15.1c-3.3,0.3-6.7,0.6-10,0.9c0.1-1.9-0.1-3.3-0.6-4.4c-1.1-2.3-5.1-2.8-6.6,0.4
					c-0.4,0.8-0.8,3-0.9,5.8c-0.1,3,0.1,7.4,3.3,7.5c2.6,0,3.7-0.8,4.1-3c0,0-2.7,0.1-4.1,0.1C152.7,145.5,152.9,142.9,153,141.9z"
					/>
			</g>
			<g>
				<path fill="#FFFFFF" d="M204,127.1c3.5,0.2,7.1,0.4,10.6,0.5c-1.7,6.3-3.4,12.6-5,18.9c-0.7,2.7-1.1,4.1-2.7,6.2
					c-0.8,1-1.7,1.9-2.8,2.4c-2.1,1.1-5.7,1.8-10.4,1.3c-4.4-0.4-7.4-1.7-8.9-3.2c-0.7-0.7-1.2-1.6-1.6-2.8c-0.6-2.2-0.4-3.8,0-6.4
					c1.2-6.2,2.5-12.4,3.7-18.6c3.6,0.2,7.1,0.3,10.7,0.5c-1.8,7.2-4.3,17.8-4.9,20.6c-1.1,5.4,5.1,5.4,6.4,0.6
					C200.8,141.7,202.5,133.3,204,127.1z"/>
			</g>
			<g>
				<path fill="#FFFFFF" d="M234,151.4c-0.5,1.2-0.9,2.5-1.4,3.7c4.7,0.4,9.4,0.9,14.1,1.3c-1,2.3-2,4.7-2.9,7.1
					c-7.3-1.2-14.7-2.4-22.1-3.5c3.4-9.8,6.9-19.6,10.4-29.4c8.1,1,16.1,2.1,24.1,3.2c-1.2,2.8-2.4,5.5-3.6,8.3
					c-4.8-0.6-9.6-1.2-14.5-1.8c-0.5,1.2-0.9,2.4-1.4,3.7c3.9,0.3,7.7,0.6,11.6,0.9c-1.1,2.6-2.2,5.2-3.2,7.9
					C241.5,152.3,237.8,151.9,234,151.4z"/>
			</g>
		</g>
		<g>
			<g>
				<path fill="#CCE8EA" d="M24.9,161.6c-3.5-8.5-7.8-18.3-11.3-26.8c2.7-0.5,5.7-1.1,8.4-1.6c0.1,0.2,0.2,0.5,0.2,0.7
					c-2.1,0.7-4.5,1.5-6.6,2.2c3.2,8.1,6.7,17.4,9.8,25.5C25.2,161.5,25.1,161.6,24.9,161.6z"/>
			</g>
			<g>
				<path fill="#CCE8EA" d="M30.1,157.6c-0.1-0.2-0.2-0.4-0.3-0.6c3.5-0.8,8.1-1.9,11.6-2.7c0.2,0.5,0.3,0.9,0.5,1.4
					C38.4,156.2,33.6,157.1,30.1,157.6z"/>
			</g>
			<g>
				<path fill="#CCE8EA" d="M60.5,156.5c-2.4-8.9-5-18.2-7.5-27c7.2-0.9,14.7-1.6,21.9-2.4c0,0.2,0.1,0.5,0.1,0.7
					c-6.7,1-13.7,1.9-20.4,3c2.1,8.4,4.3,17.3,6.4,25.8C60.9,156.4,60.7,156.4,60.5,156.5z"/>
			</g>
			<g>
				<path fill="#CCE8EA" d="M63.1,141.7c0-0.2-0.1-0.4-0.2-0.7c3.4-0.7,8-1.3,11.4-2c0.1,0.4,0.2,0.8,0.2,1.2
					C71.3,140.8,66.5,141.2,63.1,141.7z"/>
			</g>
			<g>
				<path fill="#CCE8EA" d="M65.9,153c-0.1-0.2-0.1-0.5-0.2-0.7c4.2-0.7,9.8-1.5,14-2.2c0.1,0.5,0.2,1,0.3,1.4
					C75.8,151.9,70.1,152.5,65.9,153z"/>
			</g>
			<g>
				<path fill="#CCE8EA" d="M99.6,153.2c-0.3,0-0.5,0-0.7,0c1.5-10.1,3-18.4,4.5-27.5c4.2-0.2,8.8-0.6,13-0.8
					c0.1,0.2,0.2,0.5,0.2,0.7c-4.1,0.6-8.6,1.2-11.8,1.7C103.1,135.6,101.2,144.8,99.6,153.2z"/>
			</g>
			<g>
				<path fill="#CCE8EA" d="M107,146.2c0-0.2,0-0.4,0-0.7c2.6-0.1,6.3-0.2,8.9-0.3c-0.9-3.4-2.1-7.8-3-11.1c0.2,0,0.4,0,0.5,0
					c1.2,3.8,2.7,8.7,3.8,12.2C114.2,146.2,110.2,146.3,107,146.2z"/>
			</g>
			<g>
				<path fill="#CCE8EA" d="M143.9,150.9c-3.6-3.1-5-10.7-2.9-17.4c2.7-8.4,9-9.1,13.7-9c5.4,0.1,9.6,2.3,10.9,6.5
					c-0.1,0-0.4,0.1-0.6,0.1c-1.7-3.7-5-5.1-10.3-5.3c-3.5-0.1-10,0.9-12.6,8.2c-2.1,5.9-1.1,12.8,1.9,16.4
					C144.1,150.6,144,150.8,143.9,150.9z"/>
			</g>
			<g>
				<path fill="#CCE8EA" d="M159.4,137.6c-0.2,0-0.3,0-0.5,0c-0.1-3.7-1.8-5.8-4.6-6.2c0-0.4,0-0.7,0-1.1
					C158.1,130.5,159.5,133.6,159.4,137.6z"/>
			</g>
			<g>
				<path fill="#CCE8EA" d="M154.2,143.9c0-0.2,0-0.4,0-0.6c3.9-0.1,7.6-0.4,11.5-0.5c0,0.4-0.1,0.9-0.1,1.3
					C161.7,143.9,158.2,143.9,154.2,143.9z"/>
			</g>
			<g>
				<path fill="#CCE8EA" d="M186.2,152.7c-0.6-0.5-2.6-2.1-1.9-7c0.8-4.8,3.7-18.5,3.7-18.7c2.6,0.1,5.4,0.2,8,0.3
					c-0.1,0.3-0.1,0.6-0.2,0.9c-2.2,0.1-4.4,0.2-6.6,0.3c-0.6,2.4-3,12.4-4,17.4c-0.7,3.6,0.7,5.6,1.2,6.1
					C186.4,152.3,186.3,152.5,186.2,152.7z"/>
			</g>
			<g>
				<path fill="#CCE8EA" d="M201.1,147.7c-0.2,0-0.4,0-0.6-0.1c1.5-6.3,3-12.9,4.5-19.2c2.6,0.2,5.2,0.3,7.8,0.4
					c-0.1,0.2-0.1,0.5-0.2,0.8c-2.2,0.1-4.3,0.2-6.5,0.4C204.5,135.9,202.5,143.4,201.1,147.7z"/>
			</g>
			<g>
				<path fill="#CCE8EA" d="M224.2,159.1c-0.2,0-0.5-0.1-0.7-0.1c3.1-8.9,6.3-17.8,9.5-27c7.2,0.9,14.2,1.9,21.3,2.9
					c-0.1,0.3-0.2,0.4-0.3,0.7c-6.8-0.7-13.4-1.4-20.1-2.1C230.9,141.9,227.3,150.7,224.2,159.1z"/>
			</g>
			<g>
				<path fill="#CCE8EA" d="M246,147.3c-3.1-0.4-7.6-1.1-11.2-1.6c0.1-0.2,0.1-0.4,0.2-0.6c3.4,0.3,8.1,0.6,11.5,0.9
					C246.3,146.5,246.2,146.9,246,147.3z"/>
			</g>
			<g>
				<path fill="#CCE8EA" d="M244.2,159.1c-4.2-0.7-9.5-1.5-13.6-2.3c0.1-0.2,0.1-0.3,0.2-0.5c4.3,0.5,9.8,0.9,14,1.3
					C244.6,158.1,244.4,158.7,244.2,159.1z"/>
			</g>
		</g>
	</g>
</g>
</svg>
