<?xml version="1.0" encoding="utf-8"?>
<!-- Generator: Adobe Illustrator 18.1.1, SVG Export Plug-In . SVG Version: 6.00 Build 0)  -->
<svg version="1.1" id="Layer_1" xmlns="http://www.w3.org/2000/svg" xmlns:xlink="http://www.w3.org/1999/xlink" x="0px" y="0px"
	 width="1170px" height="610px" viewBox="0 0 1170 610" enable-background="new 0 0 1170 610" xml:space="preserve">
<g>
	<polygon fill="#FDECD9" points="1165.3,607.5 24.2,602.8 15.1,31.9 1167.9,15.5 	"/>
	<polygon fill="#EF8200" points="1152.4,594.5 11.3,589.8 2.1,18.9 1154.9,2.5 	"/>
	<g>
		<defs>
			<polygon id="SVGID_1_" points="1153.4,594 11.3,589.8 2.1,18.9 1154.9,2.5 			"/>
		</defs>
		<clipPath id="SVGID_2_">
			<use xlink:href="#SVGID_1_"  overflow="visible"/>
		</clipPath>
		<polygon clip-path="url(#SVGID_2_)" fill="#008C95" points="24.3,291.4 144.9,414.9 182.5,592.5 294.8,627.2 772.8,622.3 
			1029.2,591.5 1026.2,354.9 701.3,237.7 689.4,199.1 595.8,104.7 552.7,145.9 535.9,123.9 522.9,141 517.6,155 503.9,135 
			483.2,163.8 467.7,143.3 446.9,157.8 375.2,73.3 349.9,165.6 347.2,122.8 314.6,94.5 304.6,143.7 293.7,148.2 259.4,115.4 
			230.6,173.5 199.8,139.2 139.2,176.5 133.7,184.4 133.7,173 112.5,152.1 87,249 63.6,277.9 		"/>
		<polygon clip-path="url(#SVGID_2_)" fill="#DB5B00" points="183.3,621.4 134.3,594.3 197.5,306 293.4,383.4 314.8,326.8 
			379.9,285 420.2,329 485.3,245.9 542.5,304.1 601.5,230.4 633.2,222.5 693.3,270.1 725,186.8 766.9,232.7 799.8,168.7 
			833.8,207.8 934.6,106.9 1197.2,347.9 1186.2,560.2 1189,644.4 357.8,687.1 		"/>
		<polygon clip-path="url(#SVGID_2_)" fill="#008C95" points="691.7,592.6 656.2,571.2 661.1,526.3 615.5,500.9 708.2,431.2 
			729.2,445.5 775.1,417.4 787,422.5 816.8,443.8 872.9,397 906.9,420.8 919.6,398.7 952.8,363.3 1005.5,397.9 999.2,341.6 
			1039.5,367.3 1069.7,319.3 1173.2,414.5 1168.9,622.9 		"/>
	</g>
	<path fill="#FFFFFF" d="M112.5,152.1c0,0,2.8,48.3,0.9,78c-1.9,29.7-6.5,53.8-20.4,65c-17.2,13.8-44,18-68.7-3.7l6.5-39
		c20,23.2,36.5,11.2,39.4-4.9c5-27.4-2.3-80.6-2.3-80.6L112.5,152.1z"/>
	<path fill="#FFFFFF" d="M163.5,132c29.3-7.4,45.3,10.4,46.2,30.8s-0.9,57.8-6.4,80.1c-5.6,22.3-23.3,32.3-35.4,33.2
		c-12.1,0.9-25.1,2.8-32.5-22.3c-7.4-25.1-8.1-56.2-6.5-82.1C130,154.9,133.9,139.5,163.5,132z M157.7,205.6
		c1,17.6,3.5,31.8,10.8,31.6c7.3-0.3,10.5-17,11-33.6s2.3-31.4-10.4-30.9C155.9,173.1,157,191.6,157.7,205.6z"/>
	<path fill="#FFFFFF" d="M223.7,122.3c0,0,1,51.7,8.9,124.7l25.8-5.5c-1.7-42.8-1.2-84.8,1-126.2L223.7,122.3z"/>
	<path fill="#FFFFFF" d="M285.3,110.9c-1.8,35.2,1.6,77.9,6,122.2l29.8-9.4l-2-31.3l28.8,26.8l25.8-7.5
		c-3.3-47.9-3.1-92.3,1.4-138.4l-28.8,2.8c-4,18.7-5.3,41.5-5.5,58.6l-26.3-40.2L285.3,110.9z"/>
	<g>
		<path fill="#FFFFFF" d="M140.6,324.6c-6,112.5-8.2,189.9-6.4,265.6c2.6,0,8.7,0.1,10.9,0c38.1-14.3,76.3-26.7,114.1-36.7
			l-2.5-54.4l-66.3,22.9c-0.9-51.6,2-113.1,7.1-216.1L140.6,324.6z"/>
		<path fill="#FFFFFF" d="M277.1,316.4l5.1,229.5l96-34.8l-1.7-52.7l-51.8,25.5c0,0,0.8-14.4,0-23.8c-0.8-9.3-8.5-13.6-16.1-13.6
			l59.5-21.2v-43.3l-49.3,17l0.8-41.6l59.5-17.8l0.8-54.4L277.1,316.4z"/>
		<path fill="#FFFFFF" d="M399.5,501.7l16.1-215l69.7-40.8c0,0,11,89.2,62,212.5l-51.8,17.8c0,0-24.6-38.2-42.5-119
			c0,0-8.5,64.6-3.4,137.7L399.5,501.7z"/>
		<polygon fill="#FFFFFF" points="436.9,428.6 482.8,415.8 491.3,449.8 444.5,464.3 		"/>
		<path fill="#FFFFFF" d="M534.6,273.1c-3.6,50.5,2.5,101.5,23.6,142c26.7,51.3,98.1,19.7,105.3-28.4c3.3-21.8,2.7-49.1,0.5-81.3
			l-66.6,16.1l0.8,20.4l36.4-3.9c0,0-10.6,8.3-10.4,19.3c0.4,19-1.2,36.5-14.9,39.2c-8.3,1.7-18.8-0.2-22.2-12.1
			c-6.8-23.8-7.6-82.4-5.9-99.4s26.3-28,36.5,2.5l42.5-18.7c-3.9-36.3-32.3-62.4-73.9-53.4C561.2,220.9,536.9,240.4,534.6,273.1z"/>
		<path fill="#FFFFFF" d="M679.7,190.2c0,0,0,109.9,2.3,150.2c2.3,40.2,24.9,56.1,53.3,50.4c28.3-5.7,53.8-27.8,59.5-75.4
			c5.7-47.6,5.1-146.8,5.1-146.8l-43.1,1.1c0,0-1.1,127.5-5.7,158.7c-4.3,29.8-31.4,38-31.7,1.1c-0.6-56.7,5.7-142.8,5.7-142.8
			L679.7,190.2z"/>
		<path fill="#FFFFFF" d="M826.4,150l-9.6,215.9c40.9-15,82.2-28.8,124.1-40.8l-3.4-51.6c-24,6.3-52.4,16-76.5,24.9v-32.9l42.5-13.6
			l2.3-39.7l-41.9,13.6l1.7-30l66.6-28.9c1.5-17.9,2.5-38.4,2.5-60.1C895,121.2,858.1,135.6,826.4,150z"/>
	</g>
	<g>
		<path fill="#FFFFFF" d="M414.8,168.3l0.8,22.2l19-7.1l1.6,45.9l19-7.5c0,0,0-27.7-0.4-34.1c-0.4-6.3-10.7-7.5-10.7-7.5l24.6-8.3
			l-1.2-28.5C447,151.2,428.9,159.4,414.8,168.3z"/>
		<path fill="#FFFFFF" d="M482.3,141.3c-2,22.5-2,46.8-0.8,72.1l19.8-6.3l0.8-24.2l13.9-5.1v23.4l19-7.5
			c-1.1-24.8-1.3-46.8,0.8-69.9l-18.6,7.9l-2,27.5l-12.3,4l0.8-28.1L482.3,141.3z"/>
		<polygon fill="#FFFFFF" points="551.9,119.2 552.7,187.4 597,175.4 596.3,156.2 570.5,164.6 570.9,133 594.6,124.9 595.8,104.7 		
			"/>
		<polygon fill="#FFFFFF" points="566.9,142.2 582.8,137.4 582.4,153 566.2,157.8 		"/>
	</g>
	<g>
		<path fill="#FFFFFF" d="M614.9,460.7l0.6,40.2l35.4-12.4l5.3,82.7l34.3-11.8c0,0-6.5-53.8-7.7-66.2s-13.6-11.8-13.6-11.8
			l40.2-15.4l-1.2-34.9L614.9,460.7z"/>
		<path fill="#FFFFFF" d="M721.2,475.5c-1.8-21.9,2.4-47.3,29.5-56.1c27.2-8.9,42.1,2.3,46.7,26c3.8,19.5,4.5,42.8,2.4,63.8
			c-2.2,21.8-14.8,34.3-28.9,39s-28.9,5.9-38.4-18.3C728.1,518.7,723,497.3,721.2,475.5z M750.9,487.9c4,20.7,8.3,32.4,15.6,30.2
			c7.3-2.2,8.7-17.8,8-37.8c-0.7-20-6.9-26.6-16.4-24C748.8,458.7,747.7,471.1,750.9,487.9z"/>
		<path fill="#FFFFFF" d="M891.1,428.9c1.1,25.8,1.5,70.6-16.4,87c-17.8,16.4-53.9,20.4-53.9,20.4l-11.3-129.5
			C863.8,375,890,403,891.1,428.9z M845.2,448.2c0,14.6,1.1,52.4,1.1,52.4s17.5-0.4,18.6-30.2c1.1-30.6-0.4-40.8-24.7-33.5
			C840.1,436.9,845.2,439.8,845.2,448.2z"/>
		<path fill="#FFFFFF" d="M909.2,375.2c0,0-7.1,70.5-7.1,131.6l31.7-7.6c0,0-5.2-36.5-3.3-83.3l3.8-1.4c0,0,12.8,50.7,33.1,77.6
			l27.5-17.5c0,0-34.1-54-42.1-111.3C937.2,365.9,922.5,369.6,909.2,375.2z"/>
		<polygon fill="#FFFFFF" points="927.7,459.5 953.3,447.6 960.8,472.2 928.6,486 		"/>
		<path fill="#FFFFFF" d="M967,356.7l32.2-15.2c2.8,6.6,14.7,24.1,26.5,32.7c0,0,7.6-11.8,9-45l35-9.9c0,0-5.7,46.9-23.7,77.2
			l6.6,62.5l-35.5,11.4l-4.3-66.3C994.4,391.4,978.7,376,967,356.7z"/>
	</g>
</g>
</svg>
