<?xml version="1.0" encoding="utf-8"?>
<!-- Generator: Adobe Illustrator 18.1.1, SVG Export Plug-In . SVG Version: 6.00 Build 0)  -->
<svg version="1.1" id="Layer_1" xmlns="http://www.w3.org/2000/svg" xmlns:xlink="http://www.w3.org/1999/xlink" x="0px" y="0px"
	 width="300px" height="64.6px" viewBox="0 0 300 64.6" enable-background="new 0 0 300 64.6" xml:space="preserve">
<g>
	<g>
		<g>
			<path fill="#231F20" d="M231.3,56.6h-7.1v4.9h-1.5V51.1h1.5v4.1h7.1v-4.1h1.5v10.4h-1.5V56.6z"/>
			<path fill="#231F20" d="M238.9,53.6c3,0,4.4,1.9,4.4,4.1c0,2.2-1.5,4.1-4.4,4.1c-3,0-4.4-1.9-4.4-4.1
				C234.5,55.4,235.9,53.6,238.9,53.6z M238.9,54.8c-2.1,0-2.9,1.5-2.9,2.8c0,1.4,0.8,2.8,2.9,2.8c2.1,0,2.9-1.5,2.9-2.8
				C241.8,56.3,241,54.8,238.9,54.8z"/>
			<path fill="#231F20" d="M245.8,59c0,0.7,0.6,1.5,2.4,1.5c1.9,0,2.3-0.7,2.3-1.2c0-0.5-0.3-0.9-1.4-1l-2.4-0.3
				c-1.1-0.1-2.1-0.8-2.1-2c0-1.5,1.3-2.5,3.5-2.5c2.5,0,3.6,1.1,3.7,2.6h-1.5c0-0.8-0.8-1.4-2.3-1.4c-0.9,0-2,0.3-2,1.2
				c0,0.5,0.2,0.8,1.3,0.9l2.1,0.3c1.9,0.3,2.7,0.9,2.7,2c0,1.8-1.5,2.6-3.8,2.6c-1.7,0-3.7-0.4-3.9-2.7H245.8z"/>
			<path fill="#231F20" d="M253.3,53.8h1.5v1.1h0c0.6-0.8,1.8-1.2,2.9-1.2c2.3,0,4.1,1.5,4.1,4c0,2.6-1.8,4-4.1,4
				c-1.1,0-2.3-0.4-2.9-1.2h0v3.9h-1.5V53.8z M257.5,54.9c-2,0-2.8,1.4-2.8,2.8c0,1.7,1.1,2.8,2.8,2.8c1.7,0,2.8-1.1,2.8-2.8
				C260.3,56.2,259.5,54.9,257.5,54.9z"/>
			<path fill="#231F20" d="M270.2,51.5h1.5v2.3h2.2V55h-2.2v4.7c0,0.6,0.4,0.8,1.2,0.8c0.3,0,0.7,0,1-0.1v1.2
				c-0.5,0.1-1,0.1-1.6,0.1c-1.4,0-2-0.7-2-1.8V55h-1.6v-1.1h1.6V51.5z"/>
			<path fill="#231F20" d="M274.9,56.2c0.2-1.9,1.5-2.6,3.8-2.6c1.6,0,3.5,0.4,3.5,2.2v4.1c0,0.4,0.2,0.7,0.7,0.7
				c0.2,0,0.4,0,0.5-0.1v1c-0.3,0.1-0.8,0.1-1.1,0.1c-0.7,0-1.2-0.2-1.3-1.1c-0.6,0.8-2,1.2-3.2,1.2c-2.5,0-3.1-1.3-3.1-2.3
				c0-1.4,0.8-2.1,3.3-2.4l1.7-0.2c0.8-0.1,1.3-0.2,1.3-0.9c0-1-1-1.2-2.2-1.2c-1.2,0-2.3,0.3-2.4,1.5H274.9z M280.8,57.5
				c-0.2,0.2-0.6,0.3-1.4,0.4l-1.6,0.2c-1.1,0.1-1.7,0.4-1.7,1.2c0,0.7,0.7,1.2,1.8,1.2c1.6,0,3-0.9,3-2.1V57.5z"/>
			<path fill="#231F20" d="M284.3,51h1.5v10.4h-1.5V51z"/>
		</g>
		<g>
			<g>
				<path fill="#D9272E" d="M114.2,51.1c0,1.1-0.9,1.8-2.1,1.8c-1.2,0-2.1-0.7-2.1-1.8c0-1.1,0.9-1.8,2.1-1.8
					C113.2,49.3,114.2,49.9,114.2,51.1z"/>
				<polygon fill="#D9272E" points="113.9,61.4 112.4,61.4 112.1,57.7 111.8,61.4 110.2,61.4 110.2,53.6 113.9,53.6 				"/>
			</g>
			<g>
				<path fill="#231F20" d="M83,51.1h1.5v9h6.3v1.3H83V51.1z"/>
				<path fill="#231F20" d="M93.1,58.1c0.1,1.6,1.5,2.4,2.8,2.4c0.8,0,2-0.3,2.5-1.3h1.5c-0.7,1.8-2.4,2.6-3.9,2.6
					c-3,0-4.4-1.9-4.4-4.1c0-2.2,1.5-4.1,4.4-4.1c2,0,4.1,1.2,4.1,4.3v0.2H93.1z M98.5,56.9c-0.2-1.4-1.3-2.1-2.7-2.1
					c-1.3,0-2.5,0.8-2.8,2.1H98.5z"/>
				<path fill="#231F20" d="M107.4,53.8h1.6l-3.4,7.6H104l-3.5-7.6h1.7l2.6,6L107.4,53.8z"/>
				<path fill="#231F20" d="M116.2,53.8h1.5V55h0c0.7-1.1,1.9-1.4,3-1.4c1.8,0,3.2,0.8,3.2,2.7v5.2h-1.5v-4.9c0-1.1-0.7-1.8-2.2-1.8
					c-1.3,0-2.5,0.8-2.5,2.3v4.4h-1.5V53.8z"/>
				<path fill="#231F20" d="M126.8,58.1c0.1,1.6,1.5,2.4,2.8,2.4c0.8,0,2-0.3,2.5-1.3h1.5c-0.7,1.8-2.4,2.6-3.9,2.6
					c-3,0-4.4-1.9-4.4-4.1c0-2.2,1.5-4.1,4.4-4.1c2,0,4.1,1.2,4.1,4.3v0.2H126.8z M132.2,56.9c-0.2-1.4-1.3-2.1-2.7-2.1
					c-1.3,0-2.5,0.8-2.8,2.1H132.2z"/>
			</g>
		</g>
		<g>
			<g>
				<path fill="#005CB9" d="M164.7,51.1c0,1.1-0.9,1.8-2.1,1.8c-1.2,0-2.1-0.7-2.1-1.8c0-1.1,0.9-1.8,2.1-1.8
					C163.8,49.3,164.7,49.9,164.7,51.1z"/>
				<polygon fill="#005CB9" points="164.5,61.4 162.9,61.4 162.6,57.7 162.3,61.4 160.7,61.4 160.7,53.6 164.5,53.6 				"/>
			</g>
			<g>
				<path fill="#231F20" d="M147.8,54.8c-0.2-1.4-1.4-2.7-3.5-2.7c-2.5,0-4,1.4-4,4.2c0,2,1.1,4,3.9,4c1.8,0,3.2-0.9,3.6-2.9h1.5
					c-0.2,2.3-2.2,4.2-5.2,4.2c-2.6,0-5.4-1.4-5.4-5.5c0-3,1.9-5.4,5.4-5.4c2.1,0,4.9,0.9,5.2,4H147.8z"/>
				<path fill="#231F20" d="M150.9,51h1.5v4h0c0.7-1.1,1.9-1.4,3-1.4c1.8,0,3.2,0.8,3.2,2.7v5.2h-1.5v-4.9c0-1.1-0.7-1.8-2.2-1.8
					c-1.3,0-2.5,0.8-2.5,2.3v4.4h-1.5V51z"/>
				<path fill="#231F20" d="M166.6,51h1.5v10.4h-1.5V51z"/>
				<path fill="#231F20" d="M176.5,60.5L176.5,60.5c-0.6,0.8-1.8,1.2-2.9,1.2c-2.3,0-4.1-1.5-4.1-4c0-2.6,1.8-4,4.1-4
					c1.1,0,2.3,0.4,2.9,1.2h0V51h1.5v10.4h-1.5V60.5z M173.8,60.5c2,0,2.8-1.4,2.8-2.8c0-1.7-1.1-2.8-2.8-2.8
					c-1.7,0-2.8,1.1-2.8,2.8C171,59.1,171.8,60.5,173.8,60.5z"/>
				<path fill="#231F20" d="M179.7,53.8h1.5v1.4h0c0.7-1.2,1.7-1.7,2.6-1.7c0.4,0,0.6,0,0.8,0.1v1.6c-0.4-0.1-0.6-0.1-1-0.1
					c-1.4,0-2.4,0.8-2.4,2.5v3.9h-1.5V53.8z"/>
				<path fill="#231F20" d="M186.8,58.1c0.1,1.6,1.5,2.4,2.8,2.4c0.8,0,2-0.3,2.5-1.3h1.5c-0.7,1.8-2.4,2.6-3.9,2.6
					c-3,0-4.4-1.9-4.4-4.1c0-2.2,1.5-4.1,4.4-4.1c2,0,4.1,1.2,4.1,4.3v0.2H186.8z M192.3,56.9c-0.2-1.4-1.3-2.1-2.7-2.1
					c-1.3,0-2.5,0.8-2.8,2.1H192.3z"/>
				<path fill="#231F20" d="M195.3,53.8h1.5V55h0c0.7-1.1,1.9-1.4,3-1.4c1.8,0,3.2,0.8,3.2,2.7v5.2h-1.5v-4.9c0-1.1-0.7-1.8-2.2-1.8
					c-1.3,0-2.5,0.8-2.5,2.3v4.4h-1.5V53.8z"/>
				<path fill="#231F20" d="M205.4,54.3c0.6-0.2,0.8-0.5,0.9-1.5h-0.9v-1.7h1.8v1.5c0,1.1-0.5,2.2-1.8,2.4V54.3z"/>
				<path fill="#231F20" d="M210,59c0,0.7,0.6,1.5,2.4,1.5c1.9,0,2.3-0.7,2.3-1.2c0-0.5-0.3-0.9-1.4-1l-2.4-0.3
					c-1.1-0.1-2.1-0.8-2.1-2c0-1.5,1.3-2.5,3.5-2.5c2.5,0,3.6,1.1,3.7,2.6h-1.5c0-0.8-0.8-1.4-2.3-1.4c-0.9,0-2,0.3-2,1.2
					c0,0.5,0.2,0.8,1.3,0.9l2.1,0.3c1.9,0.3,2.7,0.9,2.7,2c0,1.8-1.5,2.6-3.8,2.6c-1.7,0-3.7-0.4-3.9-2.7H210z"/>
			</g>
		</g>
		<g>
			<path fill="#F5C400" d="M267.1,51.1c0,1.1-0.9,1.8-2.1,1.8c-1.2,0-2.1-0.7-2.1-1.8c0-1.1,0.9-1.8,2.1-1.8
				C266.2,49.3,267.1,49.9,267.1,51.1z"/>
			<polygon fill="#F5C400" points="266.9,61.4 265.4,61.4 265,57.7 264.7,61.4 263.2,61.4 263.2,53.6 266.9,53.6 			"/>
		</g>
	</g>
	<g>
		<path fill="#008996" d="M31,24.8v-8.4L19.9,9.8v6.8l-8-4.7c1.4-1.5,3-2.8,4.8-4l-3-1.8c-2,1.5-3.9,3.2-5.5,5.2L31,24.8z"/>
		<path fill="#008996" d="M31,35.1v-8.4L12.6,15.9v6.8l-5.8-3.4c0.8-1.8,1.9-3.4,3-5l-2.7-1.6c-1.4,1.9-2.7,4-3.6,6.3l0,0l0,0
			L31,35.1z"/>
		<path fill="#008996" d="M31,45.5V37L8.6,23.9v6.8l-4.3-2.5C4.5,26,5,24,5.6,22.1l-2.8-1.6c-0.8,2.1-1.3,4.3-1.6,6.7l0,0
			c0,0.3-0.1,0.5-0.1,0.8l0,0L31,45.5z"/>
		<path fill="#008996" d="M31,47.4L12.5,36.5v6.8l-7.2-4.2c-0.7-2.4-1.1-4.9-1.2-7.5L1,29.7c0,0.4,0,0.8,0,1.2c0,2,0.2,3.9,0.6,5.8
			l0,0v0c0.1,0.7,0.3,1.3,0.4,1.9L27.9,54v4.3c-9-1.3-16.5-6.8-20.6-14.5l-4.6-2.7C6.8,52.9,17.9,61.4,31,61.7V47.4z"/>
		<path fill="#008996" d="M32.8,24.8v-8.4l11.1-6.5v6.8l8-4.7c-1.4-1.5-3-2.8-4.8-4l3-1.8c2,1.5,3.9,3.2,5.5,5.2L32.8,24.8z"/>
		<path fill="#008996" d="M32.8,35.1v-8.4l18.4-10.8v6.8l5.8-3.4c-0.8-1.8-1.9-3.4-3-5l2.7-1.6c1.4,1.9,2.7,4,3.6,6.3l0,0l0,0
			L32.8,35.1z"/>
		<path fill="#008996" d="M32.8,45.5V37l22.4-13.2v6.8l4.3-2.5c-0.2-2.1-0.7-4.1-1.3-6l2.8-1.6c0.8,2.1,1.3,4.3,1.6,6.7l0,0
			c0,0.3,0.1,0.5,0.1,0.8l0,0L32.8,45.5z"/>
		<path fill="#008996" d="M32.8,47.4l18.5-10.9v6.8l7.2-4.2c0.7-2.4,1.1-4.9,1.2-7.5l3.1-1.9c0,0.4,0,0.8,0,1.2c0,2-0.2,3.9-0.6,5.8
			l0,0v0c-0.1,0.7-0.3,1.3-0.4,1.9L35.9,54v4.3c9-1.3,16.5-6.8,20.6-14.5l4.6-2.7C57,52.9,45.9,61.4,32.8,61.7V47.4z"/>
		<path fill="#008996" d="M48.4,5.1L48.4,5.1L48.4,5.1C43.6,2,37.9,0.2,31.8,0.2c-6.1,0-11.8,1.8-16.6,4.9l16.6,9.8L48.4,5.1z
			 M31.8,3.4c4.3,0,8.4,1,12,2.8l-6.4,3.8l-5.6-3.4l-5.6,3.4l-6.4-3.8C23.4,4.4,27.5,3.4,31.8,3.4z"/>
	</g>
	<g>
		<path d="M90.4,35.8c-1,0.6-2.6,0.9-3.6,0.9c-4,0-6.7-2.3-6.7-6.1c0-1.9,0.8-3.4,2-4.5c1.3-1,3-1.6,4.8-1.6c1.6,0,3.1,0.4,3.9,0.7
			c-0.2,0.8-0.3,1.7-0.3,2.5h-0.5v-1.2c0-0.5-0.7-0.8-1.4-1c-0.5-0.2-1.3-0.3-1.9-0.3c-3.1,0-4.8,2.3-4.8,5.1c0,3.3,2.2,5.5,5.5,5.5
			c1.2,0,2.6-0.4,3.4-1l0.2,0.2L90.4,35.8z"/>
		<path d="M97,31.6L97,31.6c0-1.3-0.7-2.1-2.1-2.1c-0.7,0-1,0.1-1.2,0.4c-0.1,0.1-0.2,0.3-0.3,0.6l-0.2,0.5l-0.4-0.1v-1.1l0.9-0.5
			c0.7-0.4,1.4-0.6,1.9-0.6c2.1,0,2.7,0.9,2.7,3.3v3.1c0,0.3,0,0.5,0.1,0.7c0,0.2,0.2,0.2,0.4,0.3l0.7,0v0.5c-0.4,0-0.8,0-1.3,0
			c-0.4,0-0.9,0-1.3,0L97,35l-2.1,1.4c-0.1,0.1-0.5,0.1-0.8,0.1c-1.1,0-2-0.7-2-2c0-1.9,1.7-2.4,3.2-2.7L97,31.6z M97,32.1
			c-0.8,0.1-1.6,0.2-2.4,0.6c-0.6,0.2-1,1-1,1.6c0,0.9,0.6,1.4,1.3,1.4c0.5,0,1.1-0.4,1.6-0.8c0.3-0.2,0.5-0.5,0.5-0.6V32.1z"/>
		<path d="M101.8,30.9c0-0.5,0-0.9-0.1-1c-0.1-0.1-0.3-0.2-0.6-0.2h-0.6v-0.5c1-0.1,2-0.4,2.6-0.7l0.2,0.1v1.7h0l0.9-1.1
			c0.4-0.5,1-0.7,1.4-0.7c0.3,0,0.6,0.1,0.8,0.2l-0.2,2h-0.4c-0.2-0.4-0.5-0.8-1.1-0.8c-0.7,0-1.5,0.8-1.5,1.8v2.9
			c0,0.5,0,0.8,0.1,1c0.1,0.2,0.3,0.2,0.7,0.2l0.9,0.1v0.5c-0.9,0-1.5,0-2.4,0c-0.8,0-1.5,0-2.1,0v-0.5l0.8-0.1
			c0.3,0,0.5-0.1,0.5-0.2c0.1-0.2,0.1-0.5,0.1-1V30.9z"/>
		<path d="M110.5,36.7c-2.1,0-3.6-1.7-3.6-3.9c0-2.5,1.6-4.3,4.3-4.3c2.1,0,3.8,1.7,3.8,3.8c0,2.6-1.8,4.4-4.4,4.4H110.5z
			 M108.5,32.1c0,1.8,0.6,4.1,2.8,4.1c1.5,0,2.2-1.5,2.2-3.1c0-2.2-1-4-2.6-4C109.1,29.1,108.5,30.5,108.5,32.1z"/>
		<path d="M117.4,26c0-0.4-0.1-0.7-0.4-0.7H116v-0.5c0.9-0.1,1.8-0.3,2.6-0.6l0.2,0.1v10.3c0,0.5,0,0.8,0.1,1
			c0.1,0.2,0.3,0.2,0.5,0.2l0.8,0.1v0.5c-0.6,0-1.3,0-2.1,0c-0.8,0-1.5,0-2.1,0v-0.5l0.8-0.1c0.3,0,0.5-0.1,0.5-0.2
			c0.1-0.2,0.1-0.5,0.1-1V26z"/>
		<path d="M123.8,34.7c0,0.5,0,0.8,0.1,1c0.1,0.2,0.3,0.2,0.5,0.2l0.8,0.1v0.5c-0.6,0-1.3,0-2.1,0c-0.8,0-1.5,0-2.1,0v-0.5l0.8-0.1
			c0.3,0,0.5-0.1,0.5-0.2c0.1-0.2,0.1-0.5,0.1-1v-3.8c0-0.5,0-0.9-0.1-1c-0.1-0.1-0.3-0.2-0.6-0.2H121v-0.5c1-0.1,2-0.4,2.6-0.7
			l0.2,0.1V34.7z M123.9,25.8c0,0.5-0.5,0.9-0.9,0.9c-0.5,0-0.9-0.4-0.9-0.9c0-0.5,0.4-0.9,0.9-0.9
			C123.5,24.9,123.9,25.3,123.9,25.8z"/>
		<path d="M128.4,34.7c0,0.5,0,0.8,0.1,1c0.1,0.2,0.3,0.2,0.5,0.2l0.8,0.1v0.5c-0.6,0-1.3,0-2.1,0c-0.8,0-1.5,0-2.1,0v-0.5l0.8-0.1
			c0.3,0,0.5-0.1,0.5-0.2c0.1-0.2,0.1-0.5,0.1-1v-3.8c0-0.5,0-0.9-0.1-1c-0.1-0.1-0.3-0.2-0.6-0.2h-0.6v-0.5c1-0.1,2-0.4,2.6-0.7
			l0.2,0.1V30h0l1.2-1.1c0.4-0.3,0.7-0.4,1.4-0.4c2,0,2.8,1.1,2.8,2.9v3.2c0,0.5,0,0.8,0.1,1c0.1,0.2,0.3,0.2,0.5,0.2l0.7,0.1v0.5
			c-0.4,0-0.9,0-1.4,0c-0.5,0-1,0-1.3,0v-4.8c0-1.4-0.8-2.1-1.9-2.1c-1,0-2.1,0.9-2.1,1.6V34.7z"/>
		<path d="M140.8,31.6L140.8,31.6c0-1.3-0.7-2.1-2.1-2.1c-0.7,0-1,0.1-1.2,0.4c-0.1,0.1-0.2,0.3-0.3,0.6l-0.2,0.5l-0.4-0.1v-1.1
			l0.9-0.5c0.7-0.4,1.4-0.6,1.9-0.6c2.1,0,2.7,0.9,2.7,3.3v3.1c0,0.3,0,0.5,0,0.7c0,0.2,0.2,0.2,0.4,0.3l0.7,0v0.5
			c-0.4,0-0.8,0-1.3,0c-0.4,0-0.9,0-1.3,0l0.1-1.4l-2.1,1.4c-0.1,0.1-0.5,0.1-0.8,0.1c-1.1,0-2-0.7-2-2c0-1.9,1.7-2.4,3.2-2.7
			L140.8,31.6z M140.8,32.1c-0.8,0.1-1.6,0.2-2.4,0.6c-0.6,0.2-1,1-1,1.6c0,0.9,0.6,1.4,1.3,1.4c0.5,0,1.1-0.4,1.6-0.8
			c0.3-0.2,0.5-0.5,0.5-0.6V32.1z"/>
		<path d="M145,34v0.7c0,1,1.2,1.4,2.2,1.4c1.1,0,2-0.6,2-1.5c0-0.5-0.3-1-0.8-1.1c-0.7-0.2-1.7-0.4-2.5-0.7
			c-0.8-0.3-1.4-0.8-1.4-1.8c0-1.8,1.6-2.4,3.1-2.4c0.8,0,1.5,0.2,2.2,0.4c-0.1,0.6-0.1,1.2-0.1,1.9h-0.5v-0.4c0-0.9-1-1.4-1.9-1.4
			c-1.4,0-1.6,0.8-1.6,1.4c0,0.7,0.6,1.1,1.8,1.3c2,0.3,2.9,0.8,2.9,2.1c0,1.8-1.8,2.8-3.7,2.8c-0.8,0-1.5-0.1-2.3-0.4
			c0.2-0.7,0.2-1.5,0.2-2.3H145z"/>
		<path d="M167.2,34.4c0,0.6,0,1.1,0.2,1.3c0.1,0.2,0.3,0.2,0.7,0.2l0.8,0.1v0.5c-0.9,0-1.7,0-2.4,0c-0.8,0-1.6,0-2.5,0v-0.5
			l0.8-0.1c0.4,0,0.6-0.1,0.7-0.2c0.1-0.2,0.2-0.6,0.2-1.3v-3.7c-0.2,0-0.7,0-1.4,0h-3.9c-0.7,0-1.2,0-1.4,0v3.7
			c0,0.6,0,1.1,0.2,1.3c0.1,0.2,0.3,0.2,0.7,0.2l0.8,0.1v0.5c-0.9,0-1.7,0-2.4,0c-0.8,0-1.6,0-2.5,0v-0.5l0.8-0.1
			c0.4,0,0.6-0.1,0.7-0.2c0.1-0.2,0.2-0.6,0.2-1.3v-7.5c0-0.6,0-1.1-0.2-1.3c-0.1-0.2-0.3-0.2-0.7-0.2l-0.8-0.1v-0.5
			c0.9,0,1.7,0,2.5,0c0.8,0,1.6,0,2.4,0v0.5l-0.8,0.1c-0.4,0-0.6,0.1-0.7,0.2c-0.1,0.2-0.2,0.6-0.2,1.3v3c0.2,0,0.7,0,1.4,0h3.9
			c0.7,0,1.2,0,1.4,0v-3c0-0.6,0-1.1-0.2-1.3c-0.1-0.2-0.3-0.2-0.7-0.2l-0.8-0.1v-0.5c0.9,0,1.7,0,2.5,0c0.8,0,1.6,0,2.4,0v0.5
			l-0.8,0.1c-0.4,0-0.6,0.1-0.7,0.2c-0.1,0.2-0.2,0.6-0.2,1.3V34.4z"/>
		<path d="M176.8,31.6c0,0.2,0,0.5,0,0.7c-1,0.2-2,0.2-3,0.2h-2.4c0,2,1,3.3,3,3.3c0.8,0,1.4-0.4,2.1-0.8l0.2,0.2l-0.3,0.6
			c-0.1,0.2-1.5,0.9-2.7,0.9c-2.5,0-3.9-1.6-3.9-3.9c0-1.6,0.4-2.6,1.2-3.2c0.3-0.3,0.7-0.5,1-0.7c0.6-0.3,1.1-0.5,1.6-0.5
			C175.5,28.5,176.8,29.7,176.8,31.6z M171.3,31.7v0.2c0.7,0.1,1.4,0.1,2.1,0.1c0.7,0,1.3,0,1.9-0.1c0-1.6-0.6-2.8-1.8-2.8
			C172.3,29.1,171.3,30,171.3,31.7z"/>
		<path d="M182.8,31.6L182.8,31.6c0-1.3-0.7-2.1-2.1-2.1c-0.7,0-1,0.1-1.2,0.4c-0.1,0.1-0.2,0.3-0.3,0.6l-0.2,0.5l-0.4-0.1v-1.1
			l0.9-0.5c0.7-0.4,1.4-0.6,1.9-0.6c2.1,0,2.7,0.9,2.7,3.3v3.1c0,0.3,0,0.5,0.1,0.7c0,0.2,0.2,0.2,0.4,0.3l0.7,0v0.5
			c-0.4,0-0.8,0-1.3,0c-0.4,0-0.9,0-1.3,0l0.1-1.4l-2.1,1.4c-0.1,0.1-0.5,0.1-0.8,0.1c-1.1,0-2-0.7-2-2c0-1.9,1.7-2.4,3.2-2.7
			L182.8,31.6z M182.8,32.1c-0.8,0.1-1.6,0.2-2.4,0.6c-0.6,0.2-1,1-1,1.6c0,0.9,0.6,1.4,1.3,1.4c0.5,0,1.1-0.4,1.6-0.8
			c0.3-0.2,0.5-0.5,0.5-0.6V32.1z"/>
		<path d="M187.6,26c0-0.4-0.1-0.7-0.4-0.7h-0.9v-0.5c0.9-0.1,1.8-0.3,2.6-0.6l0.2,0.1v10.3c0,0.5,0,0.8,0.1,1
			c0.1,0.2,0.2,0.2,0.5,0.2l0.8,0.1v0.5c-0.6,0-1.3,0-2.1,0c-0.8,0-1.5,0-2.1,0v-0.5l0.8-0.1c0.3,0,0.5-0.1,0.5-0.2
			c0.1-0.2,0.1-0.5,0.1-1V26z"/>
		<path d="M191.2,30.1v-0.4l1.3-0.6V28c0-0.4,0-0.9-0.1-1.3c0.6-0.2,1.1-0.5,1.4-0.6l0.2,0.2c-0.1,0.7-0.2,1.7-0.2,2.4v0.6l2.3-0.1
			L196,30h-2.1v4.4c0,0.8,0.2,1.2,0.9,1.2c0.4,0,0.8-0.2,1-0.3l0.2,0.3l-0.8,0.9c-0.2,0.2-0.7,0.2-1.1,0.2c-0.9,0-1.6-0.4-1.6-1.8
			V30L191.2,30.1z"/>
		<path d="M197.8,26c0-0.4-0.1-0.7-0.4-0.7h-0.9v-0.5c0.9-0.1,1.8-0.3,2.6-0.6l0.1,0.1V30h0l1.2-1.1c0.4-0.3,0.7-0.4,1.4-0.4
			c2,0,2.8,1.1,2.8,2.9v3.2c0,0.5,0,0.8,0.1,1c0.1,0.2,0.3,0.2,0.5,0.2l0.7,0.1v0.5c-0.4,0-0.9,0-1.4,0c-0.5,0-1,0-1.3,0v-4.8
			c0-1.4-0.8-2.1-1.9-2.1c-1,0-2.1,0.9-2.1,1.6v3.5c0,0.5,0,0.8,0.1,1c0.1,0.2,0.3,0.2,0.5,0.2l0.8,0.1v0.5c-0.6,0-1.3,0-2.1,0
			c-0.8,0-1.5,0-2.1,0v-0.5l0.8-0.1c0.3,0,0.5-0.1,0.5-0.2c0.1-0.2,0.1-0.5,0.1-1V26z"/>
		<path d="M216.9,35.8c-1,0.6-2.6,0.9-3.6,0.9c-4,0-6.7-2.3-6.7-6.1c0-1.9,0.8-3.4,2-4.5c1.3-1,3-1.6,4.8-1.6c1.6,0,3.1,0.4,3.9,0.7
			c-0.2,0.8-0.3,1.7-0.3,2.5h-0.5v-1.2c0-0.5-0.7-0.8-1.4-1c-0.5-0.2-1.3-0.3-1.9-0.3c-3.1,0-4.8,2.3-4.8,5.1c0,3.3,2.2,5.5,5.5,5.5
			c1.2,0,2.6-0.4,3.4-1l0.2,0.2L216.9,35.8z"/>
		<path d="M223.6,31.6L223.6,31.6c0-1.3-0.7-2.1-2.1-2.1c-0.7,0-1,0.1-1.2,0.4c-0.1,0.1-0.2,0.3-0.3,0.6l-0.2,0.5l-0.4-0.1v-1.1
			l0.9-0.5c0.7-0.4,1.4-0.6,1.9-0.6c2.1,0,2.7,0.9,2.7,3.3v3.1c0,0.3,0,0.5,0.1,0.7c0,0.2,0.2,0.2,0.4,0.3l0.7,0v0.5
			c-0.4,0-0.8,0-1.3,0c-0.4,0-0.9,0-1.3,0l0.1-1.4l-2.1,1.4c-0.1,0.1-0.5,0.1-0.8,0.1c-1.1,0-2-0.7-2-2c0-1.9,1.7-2.4,3.2-2.7
			L223.6,31.6z M223.6,32.1c-0.8,0.1-1.6,0.2-2.4,0.6c-0.6,0.2-1,1-1,1.6c0,0.9,0.6,1.4,1.3,1.4c0.5,0,1.1-0.4,1.6-0.8
			c0.3-0.2,0.5-0.5,0.5-0.6V32.1z"/>
		<path d="M228.3,30.9c0-0.5,0-0.9-0.1-1c-0.1-0.1-0.3-0.2-0.6-0.2H227v-0.5c1-0.1,2-0.4,2.6-0.7l0.2,0.1v1.7h0l0.9-1.1
			c0.4-0.5,1-0.7,1.4-0.7c0.3,0,0.6,0.1,0.8,0.2l-0.2,2h-0.4c-0.2-0.4-0.5-0.8-1.1-0.8c-0.7,0-1.5,0.8-1.5,1.8v2.9
			c0,0.5,0,0.8,0.1,1c0.1,0.2,0.3,0.2,0.7,0.2l0.9,0.1v0.5c-0.9,0-1.5,0-2.4,0c-0.8,0-1.5,0-2.1,0v-0.5l0.8-0.1
			c0.3,0,0.5-0.1,0.5-0.2c0.1-0.2,0.1-0.5,0.1-1V30.9z"/>
		<path d="M240.5,31.6c0,0.2,0,0.5,0,0.7c-1,0.2-2,0.2-3,0.2H235c0,2,1,3.3,3,3.3c0.8,0,1.4-0.4,2.1-0.8l0.2,0.2l-0.3,0.6
			c-0.1,0.2-1.5,0.9-2.7,0.9c-2.5,0-3.9-1.6-3.9-3.9c0-1.6,0.4-2.6,1.2-3.2c0.3-0.3,0.7-0.5,1-0.7c0.6-0.3,1.1-0.5,1.6-0.5
			C239.1,28.5,240.5,29.7,240.5,31.6z M235,31.7v0.2c0.7,0.1,1.4,0.1,2.1,0.1c0.7,0,1.3,0,1.9-0.1c0-1.6-0.6-2.8-1.8-2.8
			C236,29.1,235,30,235,31.7z"/>
		<path d="M252.3,27.6l-0.1-1c0-0.5-0.1-0.6-0.7-1c-0.5-0.3-1.2-0.4-1.8-0.4c-1.2,0-2.5,0.8-2.5,2.4c0,1.1,0.7,1.8,2.8,2.1
			c2.4,0.3,3.8,0.8,3.8,2.7c0,2.9-2.6,4.2-5.1,4.2c-1.2,0-2.3-0.4-2.9-0.6c0.1-0.6,0.1-1.3,0.1-1.9v-0.6h0.5l0.1,1.1
			c0.1,0.7,1.4,1.3,2.7,1.3c1.5,0,3-0.9,3-2.6c0-1.6-1.2-2-2.9-2.2c-2.6-0.3-3.7-1.1-3.7-2.9c0-2.6,2.3-3.8,4.3-3.8
			c1.3,0,2.3,0.4,3,0.7c-0.2,0.9-0.2,1.6-0.2,2.4H252.3z"/>
		<path d="M261.2,30.1c0.1-0.2,0.1-0.3,0.1-0.4c0-0.3-0.3-0.4-0.7-0.5l-0.4,0v-0.5c0.5,0,1.1,0.1,1.6,0.1c0.5,0,1.1,0,1.6-0.1v0.5
			l-0.5,0c-0.4,0-0.8,0.6-1.4,2l-3.4,7.8c-0.5,1.2-1.1,2.1-2.5,2.1c-0.3,0-0.7-0.1-0.8-0.3l0.4-1.3h0.2c0.2,0.2,0.6,0.4,0.8,0.4h0
			c1-0.1,1.5-1.4,1.8-2.2l0.4-1l-2.8-6.8c-0.3-0.6-0.5-0.8-0.9-0.8l-0.3,0v-0.5c0.7,0,1.3,0.1,1.9,0.1c0.7,0,1.3,0,1.9-0.1v0.5
			l-0.6,0c-0.3,0-0.6,0.1-0.6,0.4c0,0.2,0,0.4,0.1,0.7l1.9,4.7L261.2,30.1z"/>
		<path d="M264.8,34v0.7c0,1,1.2,1.4,2.2,1.4c1.1,0,2-0.6,2-1.5c0-0.5-0.3-1-0.8-1.1c-0.7-0.2-1.7-0.4-2.5-0.7
			c-0.8-0.3-1.4-0.8-1.4-1.8c0-1.8,1.6-2.4,3.1-2.4c0.8,0,1.5,0.2,2.2,0.4c-0.1,0.6-0.1,1.2-0.1,1.9H269v-0.4c0-0.9-1-1.4-1.9-1.4
			c-1.4,0-1.6,0.8-1.6,1.4c0,0.7,0.6,1.1,1.8,1.3c2,0.3,2.9,0.8,2.9,2.1c0,1.8-1.8,2.8-3.7,2.8c-0.8,0-1.5-0.1-2.3-0.4
			c0.2-0.7,0.2-1.5,0.2-2.3H264.8z"/>
		<path d="M271.2,30.1v-0.4l1.3-0.6V28c0-0.4,0-0.9-0.1-1.3c0.6-0.2,1.1-0.5,1.4-0.6l0.2,0.2c-0.1,0.7-0.2,1.7-0.2,2.4v0.6l2.3-0.1
			L276,30h-2.1v4.4c0,0.8,0.2,1.2,0.9,1.2c0.4,0,0.8-0.2,1-0.3l0.2,0.3l-0.8,0.9c-0.2,0.2-0.7,0.2-1.1,0.2c-0.9,0-1.6-0.4-1.6-1.8
			V30L271.2,30.1z"/>
		<path d="M283.8,31.6c0,0.2,0,0.5,0,0.7c-1,0.2-2,0.2-3,0.2h-2.4c0,2,1,3.3,3,3.3c0.8,0,1.4-0.4,2.1-0.8l0.2,0.2l-0.3,0.6
			c-0.1,0.2-1.5,0.9-2.7,0.9c-2.5,0-3.9-1.6-3.9-3.9c0-1.6,0.4-2.6,1.2-3.2c0.3-0.3,0.7-0.5,1-0.7c0.6-0.3,1.1-0.5,1.6-0.5
			C282.5,28.5,283.8,29.7,283.8,31.6z M278.4,31.7v0.2c0.7,0.1,1.4,0.1,2.1,0.1c0.7,0,1.3,0,1.9-0.1c0-1.6-0.6-2.8-1.8-2.8
			C279.3,29.1,278.4,30,278.4,31.7z"/>
		<path d="M286.1,30.9c0-0.5,0-0.9-0.1-1c-0.1-0.1-0.3-0.2-0.6-0.2h-0.6v-0.5c1-0.1,2-0.4,2.6-0.7l0.1,0.1V30l1.2-1.1
			c0.4-0.3,0.8-0.4,1.5-0.4c1,0,1.8,0.5,2.3,1.6l1.3-1.1c0.4-0.3,0.8-0.4,1.5-0.4c1.3,0,2.4,1,2.4,2.7v3.4c0,0.5,0,0.8,0.1,1
			c0.1,0.2,0.3,0.2,0.5,0.2l0.8,0.1v0.5c-0.5,0-1,0-1.5,0c-0.5,0-1,0-1.3,0v-4.8c0-1.1-0.5-2.1-1.6-2.1c-1,0-2.1,0.9-2.1,1.6v3.5
			c0,0.5,0,0.8,0.1,1c0.1,0.2,0.3,0.2,0.5,0.2l0.8,0.1v0.5c-0.6,0-1.3,0-2.1,0c-0.8,0-1.5,0-2.1,0v-0.5l0.8-0.1
			c0.3,0,0.5-0.1,0.5-0.2c0.1-0.2,0.1-0.5,0.1-1v-3c0-1.1-0.5-2.1-1.6-2.1c-1,0-2.1,0.9-2.1,1.6v3.5c0,0.5,0,0.8,0.1,1
			c0.1,0.2,0.3,0.2,0.5,0.2l0.7,0.1v0.5c-0.5,0-1.2,0-2,0c-0.8,0-1.5,0-2.1,0v-0.5l0.8-0.1c0.3,0,0.5-0.1,0.5-0.2
			c0.1-0.2,0.1-0.5,0.1-1V30.9z"/>
	</g>
</g>
</svg>
