<?xml version="1.0" encoding="utf-8"?>
<!-- Generator: Adobe Illustrator 18.1.1, SVG Export Plug-In . SVG Version: 6.00 Build 0)  -->
<svg version="1.1" id="Layer_1" xmlns="http://www.w3.org/2000/svg" xmlns:xlink="http://www.w3.org/1999/xlink" x="0px" y="0px"
	 width="60px" height="70px" viewBox="0 0 60 70" enable-background="new 0 0 60 70" xml:space="preserve">
<path fill="#EF8200" d="M56.6,51.7L30,68.3L3.4,51.7c0,0,2-6.4,2-18.3C5.6,21.6,3.7,14.3,0.9,5c17.8-4.4,40.3-4.4,58.1,0
	c-2.8,9.3-4.7,16.6-4.5,28.4C54.6,45.3,56.6,51.7,56.6,51.7z"/>
<g>
	<defs>
		<path id="SVGID_1_" d="M56.6,51.7L30,68.3L3.4,51.7c0,0,2-6.4,2-18.3C5.6,21.6,3.7,14.3,0.9,5c17.8-4.4,40.3-4.4,58.1,0
			c-2.8,9.3-4.7,16.6-4.5,28.4C54.6,45.3,56.6,51.7,56.6,51.7z"/>
	</defs>
	<clipPath id="SVGID_2_">
		<use xlink:href="#SVGID_1_"  overflow="visible"/>
	</clipPath>
	<g clip-path="url(#SVGID_2_)">
		<polygon fill="#DB5B00" points="16.6,46.1 44.2,63.7 72.6,53.6 58.8,30.9 43.8,18.2 25.1,18 22,22 22.4,29.4 		"/>
	</g>
</g>
<path id="White_2_" fill="#FFFFFF" d="M42.6,17.6H17.2c-0.9,0-1.6,0.7-1.6,1.6v25.4c0,0.9,0.7,1.6,1.6,1.6h13.7V35.1h-3.7v-4.3h3.7
	v-3.2c0-3.7,2.3-5.7,5.5-5.7c1.6,0,2.9,0.1,3.3,0.2V26l-2.3,0c-1.8,0-2.1,0.9-2.1,2.1v2.8h4.3l-0.6,4.3h-3.7v11.1h7.3
	c0.9,0,1.6-0.7,1.6-1.6V19.2C44.2,18.3,43.5,17.6,42.6,17.6z"/>
</svg>
