<?xml version="1.0" encoding="utf-8"?>
<!-- Generator: Adobe Illustrator 18.1.1, SVG Export Plug-In . SVG Version: 6.00 Build 0)  -->
<svg version="1.1" id="Layer_1" xmlns="http://www.w3.org/2000/svg" xmlns:xlink="http://www.w3.org/1999/xlink" x="0px" y="0px"
	 width="60px" height="70px" viewBox="14 6 60 70" enable-background="new 14 6 60 70" xml:space="preserve">
<path fill="#F38B00" d="M70.3,58.5L44,74.9L17.7,58.5c0,0,2-6.4,2-18.1c0.2-11.7-1.6-18.9-4.4-28.1c17.7-4.4,39.9-4.4,57.5,0
	c-2.8,9.2-4.7,16.4-4.4,28.1C68.4,52.1,70.3,58.5,70.3,58.5z"/>
<g>
	<defs>
		<path id="SVGID_1_" d="M70.3,58.5L44,74.9L17.7,58.5c0,0,2-6.4,2-18.1c0.2-11.7-1.6-18.9-4.4-28.1c17.7-4.4,39.9-4.4,57.5,0
			c-2.8,9.2-4.7,16.4-4.4,28.1C68.4,52.1,70.3,58.5,70.3,58.5z"/>
	</defs>
	<clipPath id="SVGID_2_">
		<use xlink:href="#SVGID_1_"  overflow="visible"/>
	</clipPath>
	<g clip-path="url(#SVGID_2_)">
		<polygon fill="#DB5B00" points="31.9,50.9 58,70.3 86.2,60.3 72.4,44.1 54.9,27.6 53.4,27.8 36.5,29.4 31.4,29.7 30.7,32.2 		"/>
	</g>
</g>
<path fill="#FFFFFF" d="M52.8,26.7h-19c-1.6,0-3,1.3-3,3v19c0,1.6,1.3,3,3,3h19c1.6,0,3-1.3,3-3v-19C55.7,28,54.4,26.7,52.8,26.7z
	 M48.1,30.2c0-0.4,0.3-0.7,0.7-0.7h3.4c0.4,0,0.7,0.3,0.7,0.7v3.4c0,0.4-0.3,0.7-0.7,0.7h-3.4c-0.4,0-0.7-0.3-0.7-0.7V30.2z
	 M43.3,34.4c2.6,0,4.8,2.1,4.8,4.8c0,2.6-2.1,4.8-4.8,4.8c-2.6,0-4.8-2.1-4.8-4.8C38.5,36.5,40.7,34.4,43.3,34.4z M53,48
	c0,0.4-0.3,0.7-0.7,0.7H34.4c-0.4,0-0.7-0.3-0.7-0.7V37.2H36c-0.2,0.6-0.3,1.3-0.3,2c0,4.2,3.4,7.6,7.6,7.6c4.2,0,7.6-3.4,7.6-7.6
	c0-0.7-0.1-1.4-0.3-2H53V48z"/>
</svg>
