<?xml version="1.0" encoding="utf-8"?>
<!-- Generator: Adobe Illustrator 18.1.1, SVG Export Plug-In . SVG Version: 6.00 Build 0)  -->
<svg version="1.1" id="Layer_1" xmlns="http://www.w3.org/2000/svg" xmlns:xlink="http://www.w3.org/1999/xlink" x="0px" y="0px"
	 width="60px" height="70px" viewBox="0 0 60 70" enable-background="new 0 0 60 70" xml:space="preserve">
<path fill="#EF8200" d="M56.6,51.7L30,68.3L3.4,51.7c0,0,2-6.4,2-18.3C5.6,21.6,3.7,14.3,0.9,5c17.8-4.4,40.3-4.4,58.1,0
	c-2.8,9.3-4.7,16.6-4.5,28.4C54.6,45.3,56.6,51.7,56.6,51.7z"/>
<g>
	<defs>
		<path id="SVGID_1_" d="M56.6,51.7L30,68.3L3.4,51.7c0,0,2-6.4,2-18.3C5.6,21.6,3.7,14.3,0.9,5c17.8-4.4,40.3-4.4,58.1,0
			c-2.8,9.3-4.7,16.6-4.5,28.4C54.6,45.3,56.6,51.7,56.6,51.7z"/>
	</defs>
	<clipPath id="SVGID_2_">
		<use xlink:href="#SVGID_1_"  overflow="visible"/>
	</clipPath>
	<g clip-path="url(#SVGID_2_)">
		<polygon fill="#DB5B00" points="16,42.9 44.2,63.7 72.6,53.6 57.1,40.1 41.9,26.5 37.1,27.3 21,17.6 17.2,22.7 22.1,25.4 		"/>
	</g>
</g>
<path fill-rule="evenodd" clip-rule="evenodd" fill="#FFFFFF" d="M22.1,42.7V25.4H16v17.3H22.1L22.1,42.7z M19.1,23.1
	c2.1,0,3.5-1.3,3.5-3c0-1.7-1.3-3-3.4-3c-2.1,0-3.5,1.3-3.5,3C15.6,21.7,17,23.1,19.1,23.1L19.1,23.1L19.1,23.1z"/>
<path fill-rule="evenodd" clip-rule="evenodd" fill="#FFFFFF" d="M25.6,42.7h6.2v-9.7c0-0.5,0-1,0.2-1.4c0.4-1,1.5-2.1,3.2-2.1
	c2.2,0,3.1,1.6,3.1,3.9v9.2h6.2v-9.9c0-5.3-3-7.8-7.1-7.8c-3.3,0-4.8,1.7-5.6,2.9h0v-2.5h-6.2C25.6,27.1,25.6,42.7,25.6,42.7
	L25.6,42.7z"/>
</svg>
