<?xml version="1.0" encoding="utf-8"?>
<!-- Generator: Adobe Illustrator 18.1.1, SVG Export Plug-In . SVG Version: 6.00 Build 0)  -->
<svg version="1.1" id="Layer_1" xmlns="http://www.w3.org/2000/svg" xmlns:xlink="http://www.w3.org/1999/xlink" x="0px" y="0px"
	 width="60px" height="70px" viewBox="14 6 60 70" enable-background="new 14 6 60 70" xml:space="preserve">
<path fill="#F38B00" d="M70.3,57.5L44,74L17.7,57.5c0,0,2-6.4,2-18.1c0.2-11.7-1.6-18.9-4.4-28.1c17.7-4.4,39.9-4.4,57.5,0
	c-2.8,9.2-4.7,16.4-4.4,28.1C68.4,51.2,70.3,57.5,70.3,57.5z"/>
<g>
	<defs>
		<path id="SVGID_1_" d="M70.3,57.5L44,74L17.7,57.5c0,0,2-6.4,2-18.1c0.2-11.7-1.6-18.9-4.4-28.1c17.7-4.4,39.9-4.4,57.5,0
			c-2.8,9.2-4.7,16.4-4.4,28.1C68.4,51.2,70.3,57.5,70.3,57.5z"/>
	</defs>
	<clipPath id="SVGID_2_">
		<use xlink:href="#SVGID_1_"  overflow="visible"/>
	</clipPath>
	<g clip-path="url(#SVGID_2_)">
		<polygon fill="#DB5B00" points="35.2,49.4 59.1,69.2 86.2,59.4 73.3,46.1 55.9,28.1 47.9,25.1 43.8,25.7 35.2,28.9 30.2,38.5 		
			"/>
	</g>
</g>
<path fill="#FFFFFF" d="M44.3,22.6c-8.2,0-14.9,6.7-14.9,14.9c0,6.1,3.7,11.4,8.9,13.7c0-1,0-2.3,0.3-3.4c0.3-1.2,1.9-8.1,1.9-8.1
	s-0.5-1-0.5-2.4c0-2.2,1.3-3.9,2.9-3.9c1.4,0,2,1,2,2.2c0,1.4-0.9,3.4-1.3,5.3c-0.4,1.6,0.8,2.9,2.4,2.9c2.8,0,4.7-3.6,4.7-7.9
	c0-3.3-2.2-5.7-6.2-5.7c-4.5,0-7.4,3.4-7.4,7.2c0,1.3,0.4,2.2,1,2.9c0.3,0.3,0.3,0.5,0.2,0.8C38.2,41.3,38,42,38,42.2
	c-0.1,0.4-0.4,0.5-0.7,0.4c-2.1-0.9-3.1-3.1-3.1-5.7c0-4.2,3.6-9.3,10.7-9.3c5.7,0,9.5,4.1,9.5,8.6c0,5.9-3.3,10.2-8.1,10.2
	c-1.6,0-3.1-0.9-3.6-1.9c0,0-0.9,3.4-1.1,4.1c-0.3,1.2-0.9,2.3-1.5,3.2c1.3,0.4,2.8,0.6,4.2,0.6c8.2,0,14.9-6.7,14.9-14.9
	C59.2,29.2,52.5,22.6,44.3,22.6z"/>
</svg>
