<?xml version="1.0" encoding="utf-8"?>
<!-- Generator: Adobe Illustrator 18.1.1, SVG Export Plug-In . SVG Version: 6.00 Build 0)  -->
<svg version="1.1" id="Layer_1" xmlns="http://www.w3.org/2000/svg" xmlns:xlink="http://www.w3.org/1999/xlink" x="0px" y="0px"
	 width="60px" height="70px" viewBox="0 0 60 70" enable-background="new 0 0 60 70" xml:space="preserve">
<path fill="#EF8200" d="M56.6,51.7L30,68.3L3.4,51.7c0,0,2-6.4,2-18.3C5.6,21.6,3.7,14.3,0.9,5c17.8-4.4,40.3-4.4,58.1,0
	c-2.8,9.3-4.7,16.6-4.5,28.4C54.6,45.3,56.6,51.7,56.6,51.7z"/>
<g>
	<defs>
		<path id="SVGID_1_" d="M56.6,51.7L30,68.3L3.4,51.7c0,0,2-6.4,2-18.3C5.6,21.6,3.7,14.3,0.9,5c17.8-4.4,40.3-4.4,58.1,0
			c-2.8,9.3-4.7,16.6-4.5,28.4C54.6,45.3,56.6,51.7,56.6,51.7z"/>
	</defs>
	<clipPath id="SVGID_2_">
		<use xlink:href="#SVGID_1_"  overflow="visible"/>
	</clipPath>
	<g clip-path="url(#SVGID_2_)">
		<polygon fill="#DB5B00" points="13.3,43.1 43.5,63.7 71.9,53.6 60.8,31 46.3,18.6 36.7,30.6 29.7,32.3 21.7,29.4 27.2,44.3 		"/>
	</g>
</g>
<path fill="#FFFFFF" d="M43.7,25c0,0.3,0,0.6,0,0.9c0,9.3-7.1,20.1-20.1,20.1c-4,0-7.7-1.2-10.8-3.2c0.6,0.1,1.1,0.1,1.7,0.1
	c3.3,0,6.3-1.1,8.8-3c-3.1-0.1-5.7-2.1-6.6-4.9c0.4,0.1,0.9,0.1,1.3,0.1c0.6,0,1.3-0.1,1.9-0.2c-3.2-0.6-5.7-3.5-5.7-6.9
	c0,0,0-0.1,0-0.1c1,0.5,2,0.8,3.2,0.9c-1.9-1.3-3.1-3.4-3.1-5.9c0-1.3,0.3-2.5,1-3.6c3.5,4.3,8.7,7.1,14.6,7.4
	c-0.1-0.5-0.2-1.1-0.2-1.6c0-3.9,3.2-7.1,7.1-7.1c2,0,3.9,0.9,5.2,2.2c1.6-0.3,3.1-0.9,4.5-1.7c-0.5,1.6-1.6,3-3.1,3.9
	c1.4-0.2,2.8-0.5,4.1-1.1C46.3,22.8,45.1,24,43.7,25z"/>
</svg>
