<?xml version="1.0" encoding="utf-8"?>
<!-- Generator: Adobe Illustrator 18.1.1, SVG Export Plug-In . SVG Version: 6.00 Build 0)  -->
<svg version="1.1" id="Layer_1" xmlns="http://www.w3.org/2000/svg" xmlns:xlink="http://www.w3.org/1999/xlink" x="0px" y="0px"
	 width="60px" height="70px" viewBox="0 0 60 70" enable-background="new 0 0 60 70" xml:space="preserve">
<path fill="#EF8200" d="M56.6,51.7L30,68.3L3.4,51.7c0,0,2-6.4,2-18.3C5.6,21.6,3.7,14.3,0.9,5c17.8-4.4,40.3-4.4,58.1,0
	c-2.8,9.3-4.7,16.6-4.5,28.4C54.6,45.3,56.6,51.7,56.6,51.7z"/>
<g>
	<defs>
		<path id="SVGID_1_" d="M56.6,51.7L30,68.3L3.4,51.7c0,0,2-6.4,2-18.3C5.6,21.6,3.7,14.3,0.9,5c17.8-4.4,40.3-4.4,58.1,0
			c-2.8,9.3-4.7,16.6-4.5,28.4C54.6,45.3,56.6,51.7,56.6,51.7z"/>
	</defs>
	<clipPath id="SVGID_2_">
		<use xlink:href="#SVGID_1_"  overflow="visible"/>
	</clipPath>
	<g clip-path="url(#SVGID_2_)">
		<polygon fill="#DB5B00" points="15.7,42.3 43.3,60 72.6,53.6 59.2,34.1 44.7,21.7 22.8,21.2 22,22 22.4,29.4 		"/>
	</g>
</g>
<path fill="#FFFFFF" d="M26.4,36l0-9.3l9,4.7L26.4,36L26.4,36z M46.1,25.1c0,0-0.3-2.3-1.3-3.3c-1.3-1.3-2.7-1.3-3.3-1.4
	C36.8,20,29.9,20,29.9,20h0c0,0-7,0-11.6,0.3c-0.7,0.1-2.1,0.1-3.3,1.4c-1,1-1.3,3.3-1.3,3.3s-0.3,2.7-0.3,5.4V33
	c0,2.7,0.3,5.4,0.3,5.4s0.3,2.3,1.3,3.3c1.3,1.3,2.9,1.3,3.7,1.4c2.7,0.3,11.3,0.3,11.3,0.3s7,0,11.6-0.3c0.6-0.1,2.1-0.1,3.3-1.4
	c1-1,1.3-3.3,1.3-3.3s0.3-2.7,0.3-5.4v-2.5C46.4,27.8,46.1,25.1,46.1,25.1L46.1,25.1z"/>
</svg>
